<svg xmlns="http://www.w3.org/2000/svg" viewBox="0 0 686.48 301.55"><defs><style>.cls-1{isolation:isolate;}.cls-2{mix-blend-mode:color-dodge;}.cls-3{fill:#8acdc0;}.cls-4{fill:#de837f;}</style></defs><title>Recurso 4</title><g class="cls-1"><g id="Capa_2" data-name="Capa 2"><g id="Capa_1-2" data-name="Capa 1"><g class="cls-2"><rect class="cls-3" y="150.27" width="14.36" height="64.39"/><rect class="cls-3" x="22.4" y="119.48" width="14.36" height="31.64"/><rect class="cls-4" x="44.81" y="148.03" width="14.36" height="64.39"/><rect class="cls-3" x="67.21" y="209.32" width="14.36" height="33.36"/><rect class="cls-3" x="89.62" y="239.59" width="14.36" height="33.36"/><rect class="cls-4" x="112.02" y="269.86" width="14.36" height="29.92"/><rect class="cls-4" x="134.42" y="232.92" width="14.36" height="38.54"/><rect class="cls-3" x="156.83" y="216.66" width="14.36" height="17.85"/><rect class="cls-4" x="179.23" y="195.23" width="14.36" height="23.02"/><rect class="cls-3" x="201.64" y="141.05" width="14.36" height="57.49"/><rect class="cls-3" x="224.04" y="193.72" width="14.36" height="57.49"/><rect class="cls-3" x="246.44" y="129.21" width="14.36" height="98.85"/><rect class="cls-3" x="268.85" y="104.33" width="14.36" height="29.92"/><rect class="cls-4" x="291.25" y="65.66" width="14.36" height="47.15"/><rect class="cls-3" x="313.66" y="59.74" width="14.36" height="98.85"/><rect class="cls-3" x="336.06" y="53.82" width="14.36" height="98.85"/><rect class="cls-3" x="358.46" y="82.37" width="14.36" height="98.85"/><rect class="cls-3" x="380.87" y="145.38" width="14.36" height="98.85"/><rect class="cls-3" x="403.27" y="139.46" width="14.36" height="98.85"/><rect class="cls-4" x="425.68" y="133.54" width="14.36" height="98.85"/><rect class="cls-4" x="448.08" y="229.3" width="14.36" height="48.88"/><rect class="cls-3" x="470.48" y="271.63" width="14.36" height="29.92"/><rect class="cls-3" x="492.89" y="205.39" width="14.36" height="64.39"/><rect class="cls-4" x="515.29" y="144.32" width="14.36" height="64.39"/><rect class="cls-3" x="537.7" y="86.7" width="14.36" height="64.39"/><rect class="cls-3" x="560.1" y="51.48" width="14.36" height="38.54"/><rect class="cls-4" x="582.5" y="24.88" width="14.36" height="28.19"/><rect class="cls-3" x="604.91" width="14.36" height="29.92"/><rect class="cls-4" x="627.31" y="28.55" width="14.36" height="47.15"/><rect class="cls-3" x="649.72" y="74.33" width="14.36" height="64.39"/><rect class="cls-3" x="672.12" y="135.62" width="14.36" height="24.75"/></g></g></g></g></svg>