<svg xmlns="http://www.w3.org/2000/svg" viewBox="0 0 17.2 17.2"><defs><style>.cls-1{fill:#55ae67;}.cls-2{fill:#fff;}</style></defs><title>bitcoincash</title><g id="Capa_2" data-name="Capa 2"><g id="Capa_1-2" data-name="Capa 1"><g id="Grupo_187" data-name="Grupo 187"><path id="Trazado_393" data-name="Trazado 393" class="cls-1" d="M13.9,17.2H3.3A3.33,3.33,0,0,1,0,13.9V3.3A3.33,3.33,0,0,1,3.3,0H13.9a3.33,3.33,0,0,1,3.3,3.3V13.9a3.2,3.2,0,0,1-3.1,3.3Z"/><path id="Trazado_394" data-name="Trazado 394" class="cls-2" d="M11,4.19a1,1,0,0,0-.85-.29A4.81,4.81,0,0,0,9.22,4a6.42,6.42,0,0,1-.84.29L7.67,2.84l-1.13.57.7,1.41-.7.43L5.83,3.83l-1.06.5.71,1.41-1.77.92.63,1.2.71-.42a.67.67,0,0,1,.78.21L7.74,11.4a.68.68,0,0,1-.21.78l-.71.42.64,1.2,1.76-.92.64,1.35,1.06-.5-.64-1.34L11,12l.64,1.35,1.13-.57-.64-1.34A3.09,3.09,0,0,1,13,11a2.36,2.36,0,0,0,.85-.84A1.8,1.8,0,0,0,14,9.07,2.47,2.47,0,0,0,13.82,8a2.86,2.86,0,0,0-.92-.91,1.57,1.57,0,0,0-1.27-.15,1.7,1.7,0,0,0,.42-1,1.48,1.48,0,0,0-.21-1.06C11.42,4.61,11.58,4.5,11,4.19Zm.85,4.66a.94.94,0,0,1,.14.71.84.84,0,0,1-.42.57,1.77,1.77,0,0,1-.71.42l-1.2.64L8.73,9.28l1.06-.5a2.2,2.2,0,0,1,1.13-.42,1,1,0,0,1,.64.07,1.19,1.19,0,0,1,.28.42ZM10.07,6a1,1,0,0,1,.07.64,1.57,1.57,0,0,1-.42.57c-.14.14-.28.14-.85.42L8,8,7.17,6.31,8,6A5.35,5.35,0,0,1,9,5.46a1.23,1.23,0,0,1,.71,0,1.14,1.14,0,0,1,.35.49Z"/></g></g></g></svg>