<svg xmlns="http://www.w3.org/2000/svg" viewBox="0 0 17.2 17.2"><defs><style>.cls-1{fill:#e19b77;}.cls-2{fill:#fff;}</style></defs><title>bitcoin</title><g id="Capa_2" data-name="Capa 2"><g id="Capa_1-2" data-name="Capa 1"><g id="Grupo_187-2" data-name="Grupo 187-2"><path id="Trazado_393-3" data-name="Trazado 393-3" class="cls-1" d="M13.9,17.2H3.3A3.33,3.33,0,0,1,0,13.9V3.3A3.33,3.33,0,0,1,3.3,0H13.9a3.33,3.33,0,0,1,3.3,3.3V13.9a3.2,3.2,0,0,1-3.1,3.3Z"/><path id="Trazado_394-2" data-name="Trazado 394-2" class="cls-2" d="M13.4,7a2,2,0,0,0-.4-.8,4.44,4.44,0,0,0-.7-.6,6,6,0,0,1-.8-.4L12,3.7l-1.2-.4-.5,1.5-.8-.2L10,3.1,8.9,2.7,8.4,4.2,6.5,3.6,6.1,4.9l.8.2a.67.67,0,0,1,.4.7L6,9.8a.67.67,0,0,1-.7.4L4.5,10l-.4,1.3,1.9.6-.5,1.4,1.1.4.5-1.4.8.2-.5,1.4,1.2.4.5-1.4a2.89,2.89,0,0,1,.9.3,2.44,2.44,0,0,0,1.2,0,1.78,1.78,0,0,0,.9-.6,2.37,2.37,0,0,0,.6-.9,2.85,2.85,0,0,0,0-1.3,1.57,1.57,0,0,0-.8-1,1.81,1.81,0,0,0,1-.4,1.44,1.44,0,0,0,.6-.9A5.06,5.06,0,0,1,13.4,7Zm-2.7,3.9a.93.93,0,0,1-.4.6.83.83,0,0,1-.7.1,1.72,1.72,0,0,1-.8-.2L7.5,11l.7-2,1.1.4a2.14,2.14,0,0,1,1.1.5,1,1,0,0,1,.4.5,1.09,1.09,0,0,1-.1.5Zm.8-3.3a1,1,0,0,1-.4.5,1.51,1.51,0,0,1-.7.1c-.2,0-.3-.1-.9-.3l-.9-.3.6-1.8.8.3a5.36,5.36,0,0,1,1.1.4,1.21,1.21,0,0,1,.5.5,1.23,1.23,0,0,1-.1.6Z"/></g></g></g></svg>