<svg xmlns="http://www.w3.org/2000/svg" viewBox="0 0 17.88 17.88"><defs><style>.cls-1{fill:#3c8be2;}.cls-2{fill:#fff;}</style></defs><title>dash</title><g id="Capa_2" data-name="Capa 2"><g id="Capa_1-2" data-name="Capa 1"><g id="Grupo_518" data-name="Grupo 518"><path id="Trazado_889" data-name="Trazado 889" class="cls-1" d="M12.77,17.88H5.11A5.1,5.1,0,0,1,0,12.78H0V5.11A5.11,5.11,0,0,1,5.11,0h7.66a5.1,5.1,0,0,1,5.11,5.1h0v7.66a5.1,5.1,0,0,1-5.1,5.11Z"/><g id="Grupo_517" data-name="Grupo 517"><path id="Trazado_890" data-name="Trazado 890" class="cls-2" d="M4.06,14.41c0-.19.07-.35.1-.52.1-.55.21-1.1.3-1.65,0-.09.06-.11.15-.11H8.94a6.5,6.5,0,0,0,1.7-.22,2.72,2.72,0,0,0,1.9-1.75A7.93,7.93,0,0,0,13,7.85a1.94,1.94,0,0,0-.1-.79A1.57,1.57,0,0,0,11.87,6a3.53,3.53,0,0,0-1.11-.22c-.37,0-.73,0-1.1,0H5.76c-.15,0-.15,0-.13-.15.12-.69.25-1.37.37-2,0-.07,0-.1.13-.1,1.73,0,3.47,0,5.2,0a6.76,6.76,0,0,1,2.23.35,3.07,3.07,0,0,1,1.87,1.57,3.69,3.69,0,0,1,.37,1.42,9.34,9.34,0,0,1-.8,4.33,5.19,5.19,0,0,1-4.18,3.16c-.51.06-1,.09-1.54.1H4.22A.42.42,0,0,1,4.06,14.41Z"/><path id="Trazado_891" data-name="Trazado 891" class="cls-2" d="M2.06,10.09c0-.16.07-.31.1-.45.08-.3.13-.6.23-.88a1.31,1.31,0,0,1,1.25-1l.51,0H8.83c.05,0,.08,0,.06.09-.11.44-.2.9-.34,1.34a1.25,1.25,0,0,1-1.16.85,4.7,4.7,0,0,1-.53,0Z"/></g></g></g></g></svg>