<svg xmlns="http://www.w3.org/2000/svg" viewBox="0 0 17.79 17.79"><defs><style>.cls-1{fill:#58be38;}.cls-2{fill:#fff;}</style></defs><title>neo</title><g id="Capa_2" data-name="Capa 2"><g id="Capa_1-2" data-name="Capa 1"><g id="Grupo_505" data-name="Grupo 505"><path id="Trazado_874" data-name="Trazado 874" class="cls-1" d="M12.7,17.79H5.08A5.08,5.08,0,0,1,0,12.71H0V5.08A5.08,5.08,0,0,1,5.08,0H12.7a5.09,5.09,0,0,1,5.09,5.08h0V12.7a5.08,5.08,0,0,1-5.08,5.09Z"/><g id="ekcoLo.tif"><g id="Grupo_504" data-name="Grupo 504"><path id="Trazado_875" data-name="Trazado 875" class="cls-2" d="M7.75,15.78l-.06,0-1.15-.54L3.28,13.68l-.12-.06a.06.06,0,0,1-.05-.08h0V4.6l.07,0,1.48.7,3,1.42c.1,0,.09,0,.09.13v8.81S7.75,15.74,7.75,15.78Z"/><path id="Trazado_876" data-name="Trazado 876" class="cls-2" d="M14.68,4.39v9l-.06,0-3.87-1.83L10,11.21a.09.09,0,0,1-.07-.1V6.16c0-.07,0-.07.07-.09,1.22-.44,2.45-.89,3.68-1.32l.94-.34Z"/><path id="Trazado_877" data-name="Trazado 877" class="cls-2" d="M14.59,4.18l-.05,0L9,6.17l-1.1.4a.14.14,0,0,1-.11,0L5,5.2,3.37,4.46l-.07,0,.07,0L6.85,3.15,10,2a.15.15,0,0,1,.13,0l2.74,1.3,1.69.8.07,0Z"/></g></g></g></g></g></svg>