<svg xmlns="http://www.w3.org/2000/svg" viewBox="0 0 17.78 17.79"><defs><style>.cls-1{fill:#2b6a9f;}.cls-2{fill:#fff;}</style></defs><title>omisego</title><g id="Capa_2" data-name="Capa 2"><g id="Capa_1-2" data-name="Capa 1"><g id="Grupo_520" data-name="Grupo 520"><path id="Trazado_892" data-name="Trazado 892" class="cls-1" d="M12.7,17.79H5.08A5.09,5.09,0,0,1,0,12.71H0V5.08A5.08,5.08,0,0,1,5.08,0H12.7a5.07,5.07,0,0,1,5.08,5.08h0V12.7a5.08,5.08,0,0,1-5.07,5.09Z"/><g id="_4KbeGR.tif" data-name="4KbeGR.tif"><g id="Grupo_519" data-name="Grupo 519"><path id="Trazado_893" data-name="Trazado 893" class="cls-2" d="M7.87,3.71l.25.36A2.9,2.9,0,0,1,4.86,8.52a2.84,2.84,0,0,1-2-2.73A2.82,2.82,0,0,1,5.6,2.88h.11c.86,0,1.72,0,2.58,0,.26,0,.39,0,.37.35s0,.49-.35.45C8.18,3.67,8.06,3.7,7.87,3.71Zm-4.17,2A2.09,2.09,0,1,0,5.83,3.68,2.08,2.08,0,0,0,3.7,5.74Z"/><path id="Trazado_894" data-name="Trazado 894" class="cls-2" d="M14.9,5.78a2.83,2.83,0,0,1-2.8,2.87H12A2.9,2.9,0,1,1,14.9,5.73Zm-.82,0A2.07,2.07,0,1,0,12,7.84a2.08,2.08,0,0,0,2.07-2.07Z"/><path id="Trazado_895" data-name="Trazado 895" class="cls-2" d="M5.78,14.92A2.9,2.9,0,1,1,8.66,12h0a2.83,2.83,0,0,1-2.79,2.89ZM3.71,12a2,2,0,0,0,2,2.11h0a2.08,2.08,0,1,0-2-2.16V12Z"/></g></g></g></g></g></svg>