<svg xmlns="http://www.w3.org/2000/svg" viewBox="0 0 17.79 17.79"><defs><style>.cls-1{fill:#ba291c;}.cls-2{fill:#fff;}</style></defs><title>tron</title><g id="Capa_2" data-name="Capa 2"><g id="Capa_1-2" data-name="Capa 1"><g id="Grupo_507" data-name="Grupo 507"><path id="Trazado_878" data-name="Trazado 878" class="cls-1" d="M12.7,17.79H5.08A5.09,5.09,0,0,1,0,12.7H0V5.08A5.08,5.08,0,0,1,5.08,0h7.63a5.08,5.08,0,0,1,5.08,5.08h0V12.7a5.09,5.09,0,0,1-5.08,5.09Z"/><g id="j2qcca.tif"><g id="Grupo_506" data-name="Grupo 506"><path id="Trazado_879" data-name="Trazado 879" class="cls-2" d="M14.87,6a.27.27,0,0,1-.06.17C13.26,8.46,11.7,10.72,10.15,13L8.32,15.66a.38.38,0,0,1-.52.11.31.31,0,0,1-.14-.18c-.14-.38-.27-.74-.4-1.12L3.46,3.93c-.17-.49-.35-1-.52-1.46a.39.39,0,0,1,0-.3A.34.34,0,0,1,3.3,2L3.64,2l3.49.85,3.29.8,2.18.53a.68.68,0,0,1,.26.12l1.33.93a5.52,5.52,0,0,0,.47.32A.47.47,0,0,1,14.87,6ZM12,4.82l-3.88-1c-1.29-.32-2.59-.63-3.88-.93L8.71,8.35,12,4.82ZM3.87,3.39h0q2,5.48,3.94,11a.14.14,0,0,0,0-.06,1.5,1.5,0,0,0,0-.2l.09-.82c0-.34.06-.68.1-1l.06-.73c.06-.45.1-.9.16-1.34s.1-.89.14-1.33a.14.14,0,0,0,0-.1L7.68,8,3.9,3.44A.09.09,0,0,0,3.87,3.39ZM13.7,6.57l0,0L8.92,9c-.09.88-.19,1.75-.27,2.62s-.2,1.75-.26,2.63ZM12.56,5,9.87,7.9h0l3.92-2C13.38,5.59,13,5.3,12.56,5Z"/></g></g></g></g></g></svg>