<svg xmlns="http://www.w3.org/2000/svg" viewBox="0 0 17.79 17.79"><defs><style>.cls-1{fill:#fff;}</style></defs><title>stellar</title><g id="Capa_2" data-name="Capa 2"><g id="Capa_1-2" data-name="Capa 1"><g id="Grupo_509" data-name="Grupo 509"><path id="Trazado_880" data-name="Trazado 880" d="M12.7,17.79H5.08A5.09,5.09,0,0,1,0,12.7H0V5.08A5.08,5.08,0,0,1,5.08,0H12.7a5.08,5.08,0,0,1,5.09,5.08h0V12.7a5.09,5.09,0,0,1-5.08,5.09Z"/><g id="wbDaPA.tif"><g id="Grupo_508" data-name="Grupo 508"><path id="Trazado_881" data-name="Trazado 881" class="cls-1" d="M12.13,4.43l-.37.19-.3.15-.34.17h0a5,5,0,0,0-.47-.22L10,4.52l-.21,0-.37-.07H9.3c-.2,0-.41,0-.61,0s-.43,0-.64.07a3.54,3.54,0,0,0-.44.11,4.65,4.65,0,0,0-.52.2,4,4,0,0,0-.73.4c-.19.13-.36.29-.54.44a4.47,4.47,0,0,0-.42.45l-.24.34a3.14,3.14,0,0,0-.28.46l-.15.35a1.94,1.94,0,0,0-.16.48,2.94,2.94,0,0,0-.12.59,2.11,2.11,0,0,1,0,.26,2.33,2.33,0,0,0,0,.59c0,.1,0,.21,0,.33l.33-.16L5.28,9l.47-.24.72-.37L7,8.18l.76-.39.6-.31.5-.25L9.23,7l.35-.17.32-.17.32-.17.27-.13.28-.13.4-.21.54-.28.46-.24.41-.2L13.14,5l.48-.25c.16-.09.35-.18.53-.26l.39-.2.51-.26.37-.19V5s0,0,0,.06l-.63.32-.69.35-.49.25L13,6.21l-.7.36-.39.2L11.54,7l-.6.31-.64.33c-.1.06-.22.1-.33.16L9.5,8l-.62.32-.32.15-.3.16L7.64,9,7,9.32l-.56.29L5.74,10l-.5.26-.56.29-.47.23-.35.18-.45.22L3,11.34l-.38.2-.22.11V10.56a.09.09,0,0,1,.05-.08l.37-.18.24-.16a.85.85,0,0,0,.27-.35.59.59,0,0,0,.07-.25c0-.31,0-.63,0-.94a1.27,1.27,0,0,1,0-.34c0-.19.06-.38.1-.57a3,3,0,0,1,.11-.4,5,5,0,0,1,.18-.5c0-.1.1-.21.14-.31L4.22,6l.15-.23.28-.38.1-.11L5,5.05l.28-.28.31-.25c.13-.1.26-.2.4-.29S6.28,4,6.44,4a2.72,2.72,0,0,1,.35-.16l.55-.2c.23-.07.47-.12.7-.17s.24,0,.36,0a5.29,5.29,0,0,1,.89,0,1.61,1.61,0,0,1,.37,0l.35.05.5.13.24.07.58.25a1.24,1.24,0,0,1,.2.1l.6.37S12.11,4.41,12.13,4.43Z"/><path id="Trazado_882" data-name="Trazado 882" class="cls-1" d="M15.4,6.12V7.21a.06.06,0,0,1-.05.08l-.54.29a.81.81,0,0,0-.19.18,2.13,2.13,0,0,0-.16.25.54.54,0,0,0-.05.22,2.64,2.64,0,0,0,0,.29c0,.19,0,.38,0,.57a3.22,3.22,0,0,1,0,.43c0,.19-.06.38-.1.57s-.06.26-.1.39-.12.36-.2.54-.14.31-.22.47a2.79,2.79,0,0,1-.19.33,2.31,2.31,0,0,1-.19.28l-.2.27a1.45,1.45,0,0,1-.19.23l-.11.12-.3.3a2.6,2.6,0,0,1-.32.26,3.6,3.6,0,0,1-.4.28l-.45.27L11,14l-.39.15c-.18.06-.37.1-.55.15a5.5,5.5,0,0,1-.69.11,7.69,7.69,0,0,1-1,0l-.3,0c-.11,0-.23,0-.34-.05l-.5-.13a1.09,1.09,0,0,1-.24-.07,3.59,3.59,0,0,1-.51-.2c-.21-.1-.41-.22-.61-.34s-.21-.13-.33-.21L6,13.19l.5-.26.11,0h0l.6.28.19.05.38.11a2.62,2.62,0,0,0,.56.09c.21,0,.41,0,.62,0l.49,0,.2,0,.48-.13.13,0,.6-.27a4.39,4.39,0,0,0,.47-.27c.13-.1.26-.19.38-.3a2.29,2.29,0,0,0,.23-.21,3.13,3.13,0,0,0,.25-.26c.08-.08.13-.16.2-.24l.15-.2.17-.28a2.63,2.63,0,0,0,.27-.56c0-.16.12-.32.16-.48a4.19,4.19,0,0,0,.13-.69,4.17,4.17,0,0,0,0-.71c0-.12,0-.25,0-.38l-.4.2-.62.33L12.06,9c-.1,0-.2.11-.31.16l-.3.15-.3.15-.32.16-.33.18-.49.25-.42.21-.4.2-.46.25-.58.3-.63.31-.58.3L6.31,12l-.5.25-.52.27L5,12.61l-.41.21-.56.3-.68.35-.49.24L2.39,14h0V12.87a.08.08,0,0,1,0-.07l.49-.24c.12-.05.23-.12.35-.18l.48-.25.5-.25.53-.28.32-.15.53-.28.47-.23.57-.3.64-.33L7.82,10l.66-.34L9,9.44l.32-.17.3-.15L10,8.9l.3-.15.32-.17L11,8.41l.21-.1.37-.19.52-.26.63-.32.58-.3L13.79,7l.5-.26.31-.15L15,6.37C15.13,6.28,15.27,6.2,15.4,6.12Z"/></g></g></g></g></g></svg>