<svg xmlns="http://www.w3.org/2000/svg" viewBox="0 0 17.2 17.2"><defs><style>.cls-1{fill:#81cbf1;}.cls-2{fill:#fff;}</style></defs><title>ripple</title><g id="Capa_2" data-name="Capa 2"><g id="Capa_1-2" data-name="Capa 1"><g id="Grupo_201" data-name="Grupo 201"><g id="Grupo_200" data-name="Grupo 200"><path id="Trazado_406" data-name="Trazado 406" class="cls-1" d="M13.9,17.2H3.3A3.33,3.33,0,0,1,0,13.9V3.3A3.33,3.33,0,0,1,3.3,0H13.9a3.33,3.33,0,0,1,3.3,3.3V13.9A3.33,3.33,0,0,1,13.9,17.2Z"/><path id="Trazado_407" data-name="Trazado 407" class="cls-2" d="M5.5,6.7A2,2,0,0,1,7.4,8.1a1.1,1.1,0,0,0,.8,0c.1,0,.2-.1.3-.2a4.76,4.76,0,0,1,.3-.7A1.75,1.75,0,0,1,8.4,6a1.9,1.9,0,1,1,3.8,0h0a2,2,0,0,1-1.9,1.9,1.23,1.23,0,0,1-.6-.1,2.29,2.29,0,0,1-.3.5,5.41,5.41,0,0,0,.1,1.2,1.51,1.51,0,0,1,.7-.1,1.9,1.9,0,1,1-1.9,1.9,2.16,2.16,0,0,1,.4-1.2A5.19,5.19,0,0,1,8.5,9a3.74,3.74,0,0,1-1,.1,1.92,1.92,0,0,1-1.9,1.5,2,2,0,0,1-.1-3.9Z"/></g></g></g></g></svg>