<svg xmlns="http://www.w3.org/2000/svg" viewBox="0 0 17.2 17.2"><defs><style>.cls-1{fill:#caa74a;}.cls-2{fill:#fff;}</style></defs><title>zcash</title><g id="Capa_2" data-name="Capa 2"><g id="Capa_1-2" data-name="Capa 1"><g id="Grupo_842" data-name="Grupo 842"><path id="Trazado_1725" data-name="Trazado 1725" class="cls-1" d="M14.13,17.2H3.07A3.08,3.08,0,0,1,0,14.13V3.07A3.08,3.08,0,0,1,3.07,0H14.13A3.08,3.08,0,0,1,17.2,3.07V14.13A3.08,3.08,0,0,1,14.13,17.2Z"/><g id="u82yMP.tif_1_2" data-name="u82yMP.tif 1 2"><g id="Grupo_841" data-name="Grupo 841"><path id="Trazado_1726" data-name="Trazado 1726" class="cls-2" d="M7.9,11.39h4.49v2.14H9.5v1.78H7.71V13.55H4.81c0-.05,0-.1,0-.14V12a.34.34,0,0,1,.07-.18l3.6-4.9.78-1.05a.43.43,0,0,0,0-.07H4.81V3.67H7.7V1.9H9.49V3.67h2.9V5.2a.3.3,0,0,1-.05.16C11.1,7,9.86,8.71,8.63,10.39L8,11.32Z"/></g></g></g></g></g></svg>