<svg xmlns="http://www.w3.org/2000/svg" xmlns:xlink="http://www.w3.org/1999/xlink" viewBox="0 0 419.09 67.65"><defs><style>.cls-1{fill:#fff;}.cls-2{fill:url(#Degradado_sin_nombre_4);}.cls-3{fill:url(#Degradado_sin_nombre_4-2);}.cls-4{fill:url(#Degradado_sin_nombre_4-3);}.cls-5{fill:url(#Degradado_sin_nombre_4-4);}.cls-6{fill:url(#Degradado_sin_nombre_4-5);}.cls-7{fill:#2c465e;}.cls-8{fill:#d4e8ff;}.cls-9{fill:#e1eeff;}.cls-10{fill:#6b8092;}.cls-11{fill:#587185;}.cls-12{fill:#91a9bf;}.cls-13{fill:#34506b;}.cls-14{fill:#4b6278;}.cls-15{fill:#223649;}.cls-16{fill:#546c7f;}</style><linearGradient id="Degradado_sin_nombre_4" x1="359.1" y1="36.69" x2="358.8" y2="61" gradientUnits="userSpaceOnUse"><stop offset="0" stop-color="#b2bdc7"/><stop offset="1" stop-color="#72859e"/></linearGradient><linearGradient id="Degradado_sin_nombre_4-2" x1="382.91" y1="36.99" x2="382.6" y2="61.3" xlink:href="#Degradado_sin_nombre_4"/><linearGradient id="Degradado_sin_nombre_4-3" x1="407.03" y1="37.29" x2="406.73" y2="61.6" xlink:href="#Degradado_sin_nombre_4"/><linearGradient id="Degradado_sin_nombre_4-4" x1="324.45" y1="19.07" x2="324.45" y2="71.4" xlink:href="#Degradado_sin_nombre_4"/><linearGradient id="Degradado_sin_nombre_4-5" x1="324.45" y1="19.07" x2="324.45" y2="71.4" xlink:href="#Degradado_sin_nombre_4"/></defs><title>Recurso 5</title><g id="Capa_2" data-name="Capa 2"><g id="Capa_1-2" data-name="Capa 1"><path class="cls-1" d="M168.36,22.43q5.52,0,7.85,2.17t2.33,6.6v2.55a7.58,7.58,0,0,1-3.43,6.75,7.31,7.31,0,0,1,3.7,6.86v3.08a14.13,14.13,0,0,1-.48,3.83,7,7,0,0,1-1.58,2.89A7.14,7.14,0,0,1,173.83,59a14,14,0,0,1-4.51.63H137.5A1.42,1.42,0,0,1,135.89,58V24a1.42,1.42,0,0,1,1.61-1.59ZM144.09,37.89h22a6,6,0,0,0,3.64-.79,2.87,2.87,0,0,0,1-2.34V33a3,3,0,0,0-.94-2.42,4.81,4.81,0,0,0-3-.77H144.79a.61.61,0,0,0-.7.69Zm0,5.8v7.92a.61.61,0,0,0,.7.69h22a4.79,4.79,0,0,0,3.06-.77,3.09,3.09,0,0,0,.91-2.47V47a3.12,3.12,0,0,0-1-2.5,5.82,5.82,0,0,0-3.67-.85Z"/><path class="cls-1" d="M196.22,22.43a1,1,0,0,1,1.18,1.16V58.46a1,1,0,0,1-1.18,1.17h-5.79q-1.23,0-1.23-1.17V23.59c0-.77.41-1.16,1.23-1.16Z"/><path class="cls-1" d="M249.37,22.43c.82,0,1.24.39,1.24,1.16V28.8A1.09,1.09,0,0,1,249.37,30H232.55V58.46a1,1,0,0,1-1.18,1.17h-5.84a1,1,0,0,1-1.18-1.17V30H207.53a1.09,1.09,0,0,1-1.24-1.23V23.59c0-.77.41-1.16,1.24-1.16Z"/><path class="cls-1" d="M296.52,22.43c.82,0,1.23.39,1.23,1.16v5.05c0,.79-.41,1.17-1.23,1.17H273.11a14.4,14.4,0,0,0-3.46.35,4.62,4.62,0,0,0-2.19,1.17,4.45,4.45,0,0,0-1.16,2.23A16.24,16.24,0,0,0,266,37v.54h30.27a1,1,0,0,1,1.18,1.17v4.19a1,1,0,0,1-1.18,1.17H266V45a16.24,16.24,0,0,0,.32,3.48,4.45,4.45,0,0,0,1.16,2.23,4.62,4.62,0,0,0,2.19,1.17,14.4,14.4,0,0,0,3.46.35h23.41q1.23,0,1.23,1.17v5q0,1.17-1.23,1.17H273a27.55,27.55,0,0,1-6.92-.74,10.61,10.61,0,0,1-4.63-2.42,9.77,9.77,0,0,1-2.63-4.36,22.36,22.36,0,0,1-.83-6.51V36.46a22.17,22.17,0,0,1,.83-6.49,9.83,9.83,0,0,1,2.63-4.33A10.85,10.85,0,0,1,266,23.2a26.54,26.54,0,0,1,6.92-.77Z"/><path class="cls-2" d="M362.37,31.21H349a.56.56,0,0,0-.56.56V50.62a.56.56,0,0,0,.56.57H352a.56.56,0,0,0,.56-.57V35.83a.56.56,0,0,1,.56-.56h9.3a3.09,3.09,0,0,1,3.42,3.29,3.12,3.12,0,0,1-3.42,3.31h-7.53a.56.56,0,0,0-.56.56v2.84a.56.56,0,0,0,.56.56h7.53c4.5,0,7.4-2.9,7.4-7.38S366.94,31.21,362.37,31.21Z"/><path class="cls-3" d="M390,45.82a.77.77,0,0,1,.11-1.19A7,7,0,0,0,393,38.58c0-4.55-2.82-7.37-7.35-7.37H372.25a.78.78,0,0,0-.78.78V50.41a.78.78,0,0,0,.78.78h2.48a.78.78,0,0,0,.78-.78V36.05a.77.77,0,0,1,.77-.78h9.38c2.22,0,3.34,1.13,3.34,3.37s-1.12,3.52-3.34,3.52h-7.6a.77.77,0,0,0-.78.78v2.11a.77.77,0,0,0,.78.78h6.28a.79.79,0,0,1,.58.25l4.41,4.85a.8.8,0,0,0,.58.26h3.55a.78.78,0,0,0,.55-1.33Z"/><path class="cls-4" d="M409.29,31.21H404.6c-5.72,0-9.71,4-9.71,9.79s4.17,10.19,9.71,10.19h4.69c5.59,0,9.8-4.38,9.8-10.19A9.37,9.37,0,0,0,409.29,31.21Zm0,15.91H404.6a5.62,5.62,0,0,1-5.65-6,5.59,5.59,0,0,1,5.65-5.89h4.69A5.56,5.56,0,0,1,415,41.16,5.66,5.66,0,0,1,409.29,47.12Z"/><path class="cls-5" d="M335.89,30.79,343.37,24h0a1.17,1.17,0,0,0,.36-1.19c-.07-.26-.32-.7-1.16-.7h-5.71a2.19,2.19,0,0,0-1,.19,2.51,2.51,0,0,0-.63.45l-10.78,9.52-10.77-9.51a2.41,2.41,0,0,0-.65-.46,2.19,2.19,0,0,0-1-.19h-5.71c-.84,0-1.09.44-1.16.7a1.19,1.19,0,0,0,.38,1.2l9.58,8.73L324,41h1Z"/><path class="cls-6" d="M335.9,51.27,325,41h-1l-8.84,8.32-9.59,8.74a1.18,1.18,0,0,0-.37,1.19c.09.32.37.7,1.16.7H312a2.19,2.19,0,0,0,1-.19,2,2,0,0,0,.63-.45l10.79-9.52,10.77,9.51a2.3,2.3,0,0,0,.64.46,2.19,2.19,0,0,0,1,.19h5.71c.84,0,1.09-.44,1.16-.7a1.17,1.17,0,0,0-.36-1.19Z"/><polygon class="cls-7" points="111.43 40.96 112.53 42.58 109.38 43.24 111.43 40.96"/><polygon class="cls-8" points="127.68 36.47 124.06 42.58 122.81 41.28 127.68 36.47"/><polygon class="cls-9" points="122.81 41.28 124.06 42.58 117.34 44.84 116.93 43.24 122.81 41.28"/><polygon class="cls-10" points="116.93 43.24 117.34 44.84 109.38 43.24 112.53 42.58 116.93 43.24"/><path class="cls-11" d="M109.91,53.28l-2,2.26V49C108,49.42,109.91,53.28,109.91,53.28Z"/><path class="cls-12" d="M127.68,36.46l-1.49,6.78-6.47,5.53-9.81,4.51s-2-3.86-2-4.25v0c.06-.18,1.49-5.76,1.49-5.76l8,1.6,6.72-2.26Z"/><path class="cls-10" d="M99.69,20,101,27.25l2.79,9.69,1.61,1.55,1.37,3.44,2.61,1.31S108,48.82,107.89,49v6.54l-5.52,2.67L91.73,48.59l-3.44-9.48s3-10.46,4.94-17.31l1.43.66,1.11-1.31L97,17.75C98.28,18.82,99.69,20,99.69,20Zm3.13,23.23L102,41.93l-1.33-1.64.16,2.29Z"/><polygon class="cls-12" points="118.11 33.55 111.43 40.96 109.38 43.24 106.77 41.93 105.4 38.49 118.11 33.55"/><polygon class="cls-7" points="107.02 35.25 105.4 38.49 103.79 36.94 107.02 35.25"/><polygon class="cls-8" points="118.11 33.55 105.4 38.49 107.02 35.25 118.11 33.55"/><polygon class="cls-8" points="104.33 26.07 107.02 35.25 103.79 36.94 101 27.25 104.33 26.07"/><polygon class="cls-12" points="103.55 19.47 104.33 26.07 101 27.25 99.69 20.01 103.55 19.47"/><polygon class="cls-9" points="106.94 13.05 106.64 14.87 103.02 19.04 102.45 18.59 106.05 14.54 106.4 12.61 106.94 13.05"/><polygon class="cls-10" points="106.4 12.61 106.05 14.54 102.45 18.59 99.23 16 104.33 12.9 106.4 12.61"/><path class="cls-11" d="M89.16,7.92l-2.94.64C85.36,8.32,66.71.13,66.42,0Z"/><path class="cls-9" d="M103,19l.53.43L99.69,20S98.28,18.82,97,17.75l0,0-5.7-4.9-.05,0-5-4.29,2.94-.64L99.23,16l3.22,2.58Z"/><polygon class="cls-9" points="91.26 12.89 91.93 19.56 90.62 20.6 89.75 13.19 91.21 12.85 91.26 12.89"/><polygon class="cls-12" points="93.23 21.8 90.62 20.6 91.93 19.56 95.77 21.15 94.66 22.46 93.23 21.8"/><path class="cls-11" d="M97,17.75l-1.21,3.4-3.84-1.59-.67-6.67L94.89,16,97,17.73Z"/><path class="cls-7" d="M90.62,20.6l2.61,1.2c-2,6.85-4.94,17.31-4.94,17.31H78.22l8-30.55,5,4.29-1.46.34Z"/><path class="cls-11" d="M56.59,55.54l1,.63s-2.71,4.44-2.87,4.52a29.41,29.41,0,0,1-3.14-1.43Z"/><polygon class="cls-7" points="53.03 51.42 56.59 55.54 51.55 59.26 48.43 53.28 53.03 51.42"/><polygon class="cls-13" points="62.85 52.77 57.56 56.17 56.59 55.54 61.82 52.27 62.85 52.77"/><polygon class="cls-14" points="63.76 47.73 64.37 49.46 62.85 52.77 61.82 52.27 63.76 47.73"/><path class="cls-15" d="M63.25,46.27l.51,1.46-1.94,4.54-5.23,3.27L53,51.42l4.53-3.8,1.85-5.69,2.89-.43Z"/><path class="cls-10" d="M72.6,57.6l1,6.5s-7.65-.24-7.88-.32,1.5-6.18,1.5-6.18Z"/><polygon class="cls-9" points="77.51 60.85 73.59 64.1 72.6 57.6 73.67 57.28 77.51 60.85"/><polygon class="cls-10" points="74.42 48.49 73.67 57.28 72.6 57.6 72.76 48.57 74.42 48.49"/><polygon class="cls-9" points="77.12 39.28 74.42 48.49 72.76 48.57 76.64 33.55 79.02 32.8 77.12 39.28"/><polygon class="cls-12" points="68.32 20.6 79.02 32.8 76.64 33.55 68.32 20.6"/><path class="cls-11" d="M62.3,41.5l-1.43-7.12c.32-.63,7.45-13.78,7.45-13.78l8.32,12.95-3.88,15-.16,9H67.21l-2.84-8.14-.61-1.73-.51-1.46Z"/><path class="cls-10" d="M59.41,41.93l0-.13h0l-10-37.42V4.32L66.42,0h0c.29.13,18.94,8.32,19.8,8.56l-8,30.55-1.1.17L79,32.8,68.32,20.6s-7.13,13.15-7.45,13.78L62.3,41.5Z"/><polygon class="cls-14" points="49.32 4.38 59.37 41.8 39.67 43.9 25.69 40.16 28.52 5.38 49.32 4.38"/><polygon class="cls-16" points="59.37 41.8 59.37 41.8 38.78 47.46 39.67 43.9 59.37 41.8"/><polygon class="cls-15" points="39.67 43.9 38.78 47.46 25.69 40.16 39.67 43.9"/><polygon class="cls-10" points="36.11 58.09 32.62 61.36 27.79 63.57 32.23 59.14 36.11 58.09"/><polygon class="cls-7" points="32.23 59.14 27.79 63.57 26.25 60.57 29.93 58.09 32.23 59.14"/><polygon class="cls-11" points="36.11 58.09 32.23 59.14 29.93 58.09 31.47 57.16 36.11 58.09"/><polygon class="cls-13" points="27.07 51.29 31.47 57.16 29.93 58.09 25.65 52.15 27.07 51.29"/><polygon class="cls-14" points="25.69 40.16 27.07 51.29 25.65 52.15 24.02 41.37 25.69 40.16"/><polygon class="cls-15" points="25.65 52.15 29.93 58.09 26.25 60.57 18.64 56.6 15.72 47.49 15.68 47.42 24.02 41.37 25.65 52.15"/><path class="cls-11" d="M6.52,62.78l.91,4.87S0,66.41,0,66.35s1.76-4.22,1.76-4.22Z"/><polygon class="cls-10" points="8.3 62.13 10.73 66.47 7.43 67.65 6.52 62.78 8.3 62.13"/><polygon class="cls-9" points="12.28 49.89 8.3 62.13 6.52 62.78 9.19 49.85 12.28 49.89"/><polygon class="cls-12" points="25.69 40.16 24.02 41.37 15.68 47.42 12.28 49.89 9.19 49.85 21.61 38.36 25.69 40.16"/><polygon class="cls-11" points="28.52 5.38 25.69 40.16 21.61 38.36 28.52 5.38"/><polygon class="cls-13" points="28.52 5.38 21.61 38.36 9.19 49.85 6.52 62.78 1.76 62.13 0 52.15 3.21 42.91 6.52 15.88 28.52 5.38"/></g></g></svg>