<svg id="Capa_1" data-name="Capa 1" xmlns="http://www.w3.org/2000/svg" viewBox="0 0 200 50"><defs><style>.cls-1{fill:#dcddde;}</style></defs><title>bbva-sinhover</title><g id="NU4Zel.tif"><path class="cls-1" d="M18.46,7a1.66,1.66,0,0,1,1.22-.36H38.54a24.28,24.28,0,0,1,4.82.25,11.69,11.69,0,0,1,7.82,5,11,11,0,0,1-.41,12.39A15.13,15.13,0,0,1,48.92,26c-.15.13-.33.25-.52.39.54.28,1,.5,1.49.78a9.77,9.77,0,0,1,4.53,6.15,14.31,14.31,0,0,1-.68,9,10.33,10.33,0,0,1-6,5.71,17.12,17.12,0,0,1-5.64,1.26c-1.56.09-3.11.15-4.66.16-5.94,0-11.87,0-17.8,0A1.42,1.42,0,0,1,18.46,49ZM33.59,30.38H26.75c-1,0-1.18.21-1.22,1.18V41.65c0,.16,0,.32,0,.47.09.71.37,1,1.08,1,4.48,0,9,0,13.42,0a12.59,12.59,0,0,0,4.24-.75,4.64,4.64,0,0,0,3-3.36,9.07,9.07,0,0,0,.06-4.24,4.71,4.71,0,0,0-3.08-3.6,11.55,11.55,0,0,0-3.94-.73C38.09,30.36,35.84,30.38,33.59,30.38ZM33,24c2,0,4.1.05,6.15,0a12.23,12.23,0,0,0,3-.5,4.29,4.29,0,0,0,2.9-2.37,6.29,6.29,0,0,0,.42-3.9,4.62,4.62,0,0,0-3.84-3.82A19.54,19.54,0,0,0,37.92,13c-3.56-.05-7.11,0-10.66,0a5.49,5.49,0,0,0-.81,0c-.59.07-.77.26-.77.85,0,3.14,0,6.28,0,9.41a.6.6,0,0,0,.52.67,2.41,2.41,0,0,0,.54.05Z"/><path class="cls-1" d="M158.89.5a5.78,5.78,0,0,1,.74.91q10.1,18.83,20.15,37.67c.56,1.05,1.11,2.1,1.66,3.15a.67.67,0,0,1-.6,1h-6.79a.88.88,0,0,1-.84-.54l-5-9.57c-1.37-2.61-2.75-5.2-4.12-7.81q-2.26-4.29-4.51-8.6a4.52,4.52,0,0,1-.25-.49.78.78,0,0,0-1.42,0c-.6,1.22-1.27,2.4-1.9,3.6q-3,5.7-6,11.41-2,3.8-4,7.59c-.64,1.23-1.29,2.45-1.91,3.69a1.27,1.27,0,0,1-1.25.76c-2.07,0-4.14,0-6.2,0a2.42,2.42,0,0,1-.47-.05c-.46-.1-.62-.34-.5-.8a4.29,4.29,0,0,1,.37-.85l10.29-19.23Q152,11.79,157.63,1.22a4.36,4.36,0,0,1,.58-.72Z"/><path class="cls-1" d="M91.48,26.38c.23.12.36.19.5.25A10,10,0,0,1,97.83,35a14.63,14.63,0,0,1-.73,6.76,10.56,10.56,0,0,1-6.6,6.46,20.57,20.57,0,0,1-5.81,1.18c-.59,0-1.18.08-1.77.08H62.66c-.88,0-1.23-.35-1.23-1.23V7.94a2.07,2.07,0,0,1,.09-.66.82.82,0,0,1,.83-.61h1.48c6.74,0,13.48,0,20.22,0a12.58,12.58,0,0,1,8.55,3.2,9.89,9.89,0,0,1,3.21,6,10.76,10.76,0,0,1-1.29,7.48,8.62,8.62,0,0,1-2.62,2.69Zm-14.79,4H69.6c-.7,0-.92.22-.92.92V41.94c0,1,.2,1.14,1.15,1.14H82.15c.67,0,1.35,0,2-.09a10.94,10.94,0,0,0,3.42-.76,4.47,4.47,0,0,0,2.7-2.91,8.79,8.79,0,0,0,.11-4.85,4.58,4.58,0,0,0-2.83-3.27,11.1,11.1,0,0,0-4.14-.81C81.19,30.36,78.94,30.38,76.69,30.38ZM76.13,24h0c1.9,0,3.8,0,5.69,0a15.09,15.09,0,0,0,2.61-.26,4.78,4.78,0,0,0,4-3.29,6.68,6.68,0,0,0,0-3.76,3.82,3.82,0,0,0-1.82-2.46,7.37,7.37,0,0,0-2.26-.92,22.41,22.41,0,0,0-3.75-.3c-3.52,0-7,0-10.57,0-1.19,0-1.39.21-1.39,1.38v8.48c0,.88.28,1.16,1.17,1.16Z"/><path class="cls-1" d="M102.29,6.67c1.06,0,2.13,0,3.19,0a.93.93,0,0,1,1,.53c.7,1.33,1.42,2.65,2.12,4q2.26,4.29,4.52,8.6l4.13,7.84,3,5.68.1.18c.38.9,1.26.82,1.64,0,.47-1,1-2,1.55-3q3.6-6.82,7.19-13.66l4.43-8.46c.23-.45.5-.88.75-1.32a.8.8,0,0,1,.78-.41h6.63c.72,0,1,.49.69,1.14-.5,1-1,1.92-1.55,2.88q-5.5,10.31-11,20.61-4.56,8.54-9.13,17.06a4.65,4.65,0,0,1-.6.87.6.6,0,0,1-1,0,5.7,5.7,0,0,1-.83-1.12q-7.36-13.75-14.72-27.53L98.34,8c-.44-.82-.16-1.27.77-1.28Z"/></g></svg>