<svg xmlns="http://www.w3.org/2000/svg" viewBox="0 0 200 50"><defs><style>.cls-1{isolation:isolate;}.cls-2{opacity:0.55;}.cls-18,.cls-3{mix-blend-mode:overlay;}.cls-4{fill:#888;}.cls-5{fill:#d0d0d0;}.cls-6{fill:#c5c5c5;}.cls-7{fill:#ababab;}.cls-8{fill:#e6e6e6;}.cls-9{fill:#b1b1b1;}.cls-10{fill:#919191;}.cls-11{fill:gray;}.cls-12{fill:#3a3a3a;}.cls-13{fill:#767676;}.cls-14{fill:#5a5a5a;}.cls-15{fill:#9b9b9b;}.cls-16{fill:#fff;}.cls-17{fill:#e5f1f4;}.cls-18{opacity:0.43;}.cls-19{fill:#dcddde;}</style></defs><title>bfxpro-sinhover</title><g class="cls-1"><g id="Capa_1" data-name="Capa 1"><g class="cls-2"><g class="cls-3"><polygon class="cls-4" points="45.21 11.44 39.96 15.79 40.68 13.29 43.85 10.45 45.21 11.44"/><polygon class="cls-5" points="33.04 7.22 36.07 11.44 29.87 8.06 33.04 7.22"/><polygon class="cls-6" points="29.21 6.4 29.87 8.06 27.63 13.29 25.79 9.07 29.21 6.4"/><polygon class="cls-7" points="40.68 13.29 27.63 13.29 29.87 8.06 36.07 11.44 40.68 13.29"/><polygon class="cls-5" points="29.21 0.5 29.21 6.4 25.79 9.07 25.79 5.78 29.21 0.5"/><polygon class="cls-8" points="36.07 3.14 33.04 7.22 29.87 8.06 29.21 6.4 29.21 0.5 36.07 3.14"/><polygon class="cls-7" points="36.07 3.14 38.84 7.29 36.07 11.44 33.04 7.22 36.07 3.14"/><polygon class="cls-8" points="43.85 10.45 36.07 11.44 38.84 7.29 43.85 10.45"/><polygon class="cls-7" points="45.79 7.29 43.85 10.45 38.84 7.29 45.79 7.29"/><polygon class="cls-8" points="45.79 5.78 45.79 7.29 38.84 7.29 36.07 3.14 45.79 5.78"/><polygon class="cls-9" points="58.61 3.14 48.89 5.78 52.94 1.88 58.61 3.14"/><polygon class="cls-4" points="58.61 3.14 52.94 1.88 50.83 0.5 57.03 1.56 58.61 3.14"/><polygon class="cls-8" points="52.94 1.88 48.89 5.78 47.34 3.27 50.83 0.5 52.94 1.88"/><polygon class="cls-8" points="43.85 0.5 41.74 1.88 36.07 3.14 37.65 1.56 43.85 0.5"/><polygon class="cls-5" points="45.79 5.78 36.07 3.14 41.74 1.88 45.79 5.78"/><polygon class="cls-8" points="47.34 3.27 45.79 5.78 41.74 1.88 43.85 0.5 47.34 3.27"/><polygon class="cls-7" points="47.34 3.27 48.89 5.78 47.34 6.63 45.79 5.78 47.34 3.27"/><polygon class="cls-9" points="48.89 5.78 48.89 7.29 47.34 9.33 47.34 6.63 48.89 5.78"/><polygon class="cls-8" points="47.34 6.63 47.34 9.33 45.79 7.29 45.79 5.78 47.34 6.63"/><polygon class="cls-7" points="47.34 9.33 47.34 11.44 45.21 11.44 43.85 10.45 45.79 7.29 47.34 9.33"/><polygon class="cls-8" points="54 13.29 54.72 15.79 49.47 11.44 50.83 10.45 54 13.29"/><polygon class="cls-10" points="48.89 7.29 50.83 10.45 49.47 11.44 47.34 11.44 47.34 9.33 48.89 7.29"/><polygon class="cls-4" points="55.84 7.29 58.61 11.44 50.83 10.45 55.84 7.29"/><polygon class="cls-7" points="55.84 7.29 50.83 10.45 48.89 7.29 55.84 7.29"/><polygon class="cls-7" points="58.61 3.14 55.84 7.29 48.89 7.29 48.89 5.78 58.61 3.14"/><polygon class="cls-11" points="58.61 3.14 61.64 7.22 58.61 11.44 55.84 7.29 58.61 3.14"/><polygon class="cls-11" points="68.9 9.07 67.05 13.29 64.81 8.06 65.47 6.4 68.9 9.07"/><polygon class="cls-12" points="68.9 5.78 68.9 9.07 65.47 6.4 65.47 0.5 68.9 5.78"/><polygon class="cls-7" points="65.47 0.5 65.47 6.4 64.81 8.06 61.64 7.22 58.61 3.14 65.47 0.5"/><polygon class="cls-12" points="64.81 8.06 58.61 11.44 61.64 7.22 64.81 8.06"/><polygon class="cls-13" points="64.81 8.06 67.05 13.29 54 13.29 58.61 11.44 64.81 8.06"/><polygon class="cls-10" points="57.95 18.96 54.72 24.8 54.04 21.55 54.72 15.79 57.95 18.96"/><polygon class="cls-7" points="67.05 13.29 68.11 17.24 57.95 18.96 54.72 15.79 54 13.29 67.05 13.29"/><polygon class="cls-13" points="68.11 17.24 68.11 29.11 51.56 28.41 54.72 24.8 57.95 18.96 68.11 17.24"/><polygon class="cls-14" points="68.11 29.11 61.64 40.98 49.22 30.67 51.56 28.41 68.11 29.11"/><polygon class="cls-11" points="61.64 40.98 47.34 49.5 47.34 32.49 49.22 30.67 61.64 40.98"/><polygon class="cls-7" points="47.34 32.49 47.34 49.5 33.04 40.98 45.46 30.67 47.34 32.49"/><polygon class="cls-15" points="45.46 30.67 33.04 40.98 26.58 29.11 43.12 28.41 45.46 30.67"/><polygon class="cls-7" points="39.96 24.8 43.12 28.41 26.58 29.11 26.58 17.24 36.73 18.96 39.96 24.8"/><polygon class="cls-6" points="40.68 13.29 39.96 15.79 36.73 18.96 26.58 17.24 27.63 13.29 40.68 13.29"/><polygon class="cls-16" points="39.96 15.79 40.64 21.55 39.96 24.8 36.73 18.96 39.96 15.79"/><polygon class="cls-15" points="54.04 21.55 54.72 24.8 50.14 23.66 48.41 19.97 54.04 21.55"/><polygon class="cls-7" points="54.72 15.79 54.04 21.55 48.41 19.97 51.03 17.95 51.76 15.79 54.72 15.79"/><polygon class="cls-9" points="54.72 15.79 51.76 15.79 49.65 14.08 47.34 14.08 47.34 11.44 49.47 11.44 54.72 15.79"/><polygon class="cls-16" points="47.34 11.44 47.34 14.08 45.03 14.08 42.92 15.79 39.96 15.79 45.21 11.44 47.34 11.44"/><polygon class="cls-14" points="51.76 15.79 51.03 17.95 48.41 19.97 47.34 19.97 46.28 19.97 43.65 17.95 42.92 15.79 45.03 14.08 47.34 14.08 49.65 14.08 51.76 15.79"/><polygon class="cls-16" points="46.28 19.97 40.64 21.55 39.96 15.79 42.92 15.79 43.65 17.95 46.28 19.97"/><polygon class="cls-16" points="46.28 19.97 44.54 23.66 39.96 24.8 40.64 21.55 46.28 19.97"/><polygon class="cls-8" points="48.41 19.97 50.14 23.66 47.34 22.39 47.34 19.97 48.41 19.97"/><polygon class="cls-16" points="47.34 19.97 47.34 22.39 44.54 23.66 46.28 19.97 47.34 19.97"/><polygon class="cls-16" points="50.14 23.66 47.34 25.24 44.54 23.66 50.14 23.66"/><polygon class="cls-8" points="47.34 25.24 47.34 29.11 43.12 28.41 39.96 24.8 44.54 23.66 47.34 25.24"/><polygon class="cls-9" points="54.72 24.8 51.56 28.41 47.34 29.11 47.34 25.24 50.14 23.66 54.72 24.8"/><polygon class="cls-4" points="51.56 28.41 49.22 30.67 47.34 29.11 51.56 28.41"/><polygon class="cls-14" points="49.22 30.67 47.34 32.49 47.34 29.11 49.22 30.67"/><polygon class="cls-4" points="47.34 29.11 45.46 30.67 43.12 28.41 47.34 29.11"/><polygon class="cls-11" points="47.34 29.11 47.34 32.49 45.46 30.67 47.34 29.11"/><polygon class="cls-17" points="47.34 32.49 43.65 47.3 47.34 49.5 47.34 32.49"/><polygon class="cls-4" points="45.03 14.08 47.34 16.54 49.65 14.08 45.03 14.08"/><polygon class="cls-12" points="47.34 16.54 43.65 17.95 46.28 19.97 48.41 19.97 51.03 17.95 47.34 16.54"/></g><g class="cls-18"><polygon class="cls-4" points="45.21 11.44 39.96 15.79 40.68 13.29 43.85 10.45 45.21 11.44"/><polygon class="cls-5" points="33.04 7.22 36.07 11.44 29.87 8.06 33.04 7.22"/><polygon class="cls-6" points="29.21 6.4 29.87 8.06 27.63 13.29 25.79 9.07 29.21 6.4"/><polygon class="cls-7" points="40.68 13.29 27.63 13.29 29.87 8.06 36.07 11.44 40.68 13.29"/><polygon class="cls-5" points="29.21 0.5 29.21 6.4 25.79 9.07 25.79 5.78 29.21 0.5"/><polygon class="cls-8" points="36.07 3.14 33.04 7.22 29.87 8.06 29.21 6.4 29.21 0.5 36.07 3.14"/><polygon class="cls-7" points="36.07 3.14 38.84 7.29 36.07 11.44 33.04 7.22 36.07 3.14"/><polygon class="cls-8" points="43.85 10.45 36.07 11.44 38.84 7.29 43.85 10.45"/><polygon class="cls-7" points="45.79 7.29 43.85 10.45 38.84 7.29 45.79 7.29"/><polygon class="cls-8" points="45.79 5.78 45.79 7.29 38.84 7.29 36.07 3.14 45.79 5.78"/><polygon class="cls-9" points="58.61 3.14 48.89 5.78 52.94 1.88 58.61 3.14"/><polygon class="cls-4" points="58.61 3.14 52.94 1.88 50.83 0.5 57.03 1.56 58.61 3.14"/><polygon class="cls-8" points="52.94 1.88 48.89 5.78 47.34 3.27 50.83 0.5 52.94 1.88"/><polygon class="cls-8" points="43.85 0.5 41.74 1.88 36.07 3.14 37.65 1.56 43.85 0.5"/><polygon class="cls-5" points="45.79 5.78 36.07 3.14 41.74 1.88 45.79 5.78"/><polygon class="cls-8" points="47.34 3.27 45.79 5.78 41.74 1.88 43.85 0.5 47.34 3.27"/><polygon class="cls-7" points="47.34 3.27 48.89 5.78 47.34 6.63 45.79 5.78 47.34 3.27"/><polygon class="cls-9" points="48.89 5.78 48.89 7.29 47.34 9.33 47.34 6.63 48.89 5.78"/><polygon class="cls-8" points="47.34 6.63 47.34 9.33 45.79 7.29 45.79 5.78 47.34 6.63"/><polygon class="cls-7" points="47.34 9.33 47.34 11.44 45.21 11.44 43.85 10.45 45.79 7.29 47.34 9.33"/><polygon class="cls-8" points="54 13.29 54.72 15.79 49.47 11.44 50.83 10.45 54 13.29"/><polygon class="cls-10" points="48.89 7.29 50.83 10.45 49.47 11.44 47.34 11.44 47.34 9.33 48.89 7.29"/><polygon class="cls-4" points="55.84 7.29 58.61 11.44 50.83 10.45 55.84 7.29"/><polygon class="cls-7" points="55.84 7.29 50.83 10.45 48.89 7.29 55.84 7.29"/><polygon class="cls-7" points="58.61 3.14 55.84 7.29 48.89 7.29 48.89 5.78 58.61 3.14"/><polygon class="cls-11" points="58.61 3.14 61.64 7.22 58.61 11.44 55.84 7.29 58.61 3.14"/><polygon class="cls-11" points="68.9 9.07 67.05 13.29 64.81 8.06 65.47 6.4 68.9 9.07"/><polygon class="cls-12" points="68.9 5.78 68.9 9.07 65.47 6.4 65.47 0.5 68.9 5.78"/><polygon class="cls-7" points="65.47 0.5 65.47 6.4 64.81 8.06 61.64 7.22 58.61 3.14 65.47 0.5"/><polygon class="cls-12" points="64.81 8.06 58.61 11.44 61.64 7.22 64.81 8.06"/><polygon class="cls-13" points="64.81 8.06 67.05 13.29 54 13.29 58.61 11.44 64.81 8.06"/><polygon class="cls-10" points="57.95 18.96 54.72 24.8 54.04 21.55 54.72 15.79 57.95 18.96"/><polygon class="cls-7" points="67.05 13.29 68.11 17.24 57.95 18.96 54.72 15.79 54 13.29 67.05 13.29"/><polygon class="cls-13" points="68.11 17.24 68.11 29.11 51.56 28.41 54.72 24.8 57.95 18.96 68.11 17.24"/><polygon class="cls-14" points="68.11 29.11 61.64 40.98 49.22 30.67 51.56 28.41 68.11 29.11"/><polygon class="cls-11" points="61.64 40.98 47.34 49.5 47.34 32.49 49.22 30.67 61.64 40.98"/><polygon class="cls-7" points="47.34 32.49 47.34 49.5 33.04 40.98 45.46 30.67 47.34 32.49"/><polygon class="cls-15" points="45.46 30.67 33.04 40.98 26.58 29.11 43.12 28.41 45.46 30.67"/><polygon class="cls-7" points="39.96 24.8 43.12 28.41 26.58 29.11 26.58 17.24 36.73 18.96 39.96 24.8"/><polygon class="cls-6" points="40.68 13.29 39.96 15.79 36.73 18.96 26.58 17.24 27.63 13.29 40.68 13.29"/><polygon class="cls-16" points="39.96 15.79 40.64 21.55 39.96 24.8 36.73 18.96 39.96 15.79"/><polygon class="cls-15" points="54.04 21.55 54.72 24.8 50.14 23.66 48.41 19.97 54.04 21.55"/><polygon class="cls-7" points="54.72 15.79 54.04 21.55 48.41 19.97 51.03 17.95 51.76 15.79 54.72 15.79"/><polygon class="cls-9" points="54.72 15.79 51.76 15.79 49.65 14.08 47.34 14.08 47.34 11.44 49.47 11.44 54.72 15.79"/><polygon class="cls-16" points="47.34 11.44 47.34 14.08 45.03 14.08 42.92 15.79 39.96 15.79 45.21 11.44 47.34 11.44"/><polygon class="cls-14" points="51.76 15.79 51.03 17.95 48.41 19.97 47.34 19.97 46.28 19.97 43.65 17.95 42.92 15.79 45.03 14.08 47.34 14.08 49.65 14.08 51.76 15.79"/><polygon class="cls-16" points="46.28 19.97 40.64 21.55 39.96 15.79 42.92 15.79 43.65 17.95 46.28 19.97"/><polygon class="cls-16" points="46.28 19.97 44.54 23.66 39.96 24.8 40.64 21.55 46.28 19.97"/><polygon class="cls-8" points="48.41 19.97 50.14 23.66 47.34 22.39 47.34 19.97 48.41 19.97"/><polygon class="cls-16" points="47.34 19.97 47.34 22.39 44.54 23.66 46.28 19.97 47.34 19.97"/><polygon class="cls-16" points="50.14 23.66 47.34 25.24 44.54 23.66 50.14 23.66"/><polygon class="cls-8" points="47.34 25.24 47.34 29.11 43.12 28.41 39.96 24.8 44.54 23.66 47.34 25.24"/><polygon class="cls-9" points="54.72 24.8 51.56 28.41 47.34 29.11 47.34 25.24 50.14 23.66 54.72 24.8"/><polygon class="cls-4" points="51.56 28.41 49.22 30.67 47.34 29.11 51.56 28.41"/><polygon class="cls-14" points="49.22 30.67 47.34 32.49 47.34 29.11 49.22 30.67"/><polygon class="cls-4" points="47.34 29.11 45.46 30.67 43.12 28.41 47.34 29.11"/><polygon class="cls-11" points="47.34 29.11 47.34 32.49 45.46 30.67 47.34 29.11"/><polygon class="cls-17" points="47.34 32.49 43.65 47.3 47.34 49.5 47.34 32.49"/><polygon class="cls-4" points="45.03 14.08 47.34 16.54 49.65 14.08 45.03 14.08"/><polygon class="cls-12" points="47.34 16.54 43.65 17.95 46.28 19.97 48.41 19.97 51.03 17.95 47.34 16.54"/></g></g><path class="cls-19" d="M105.78,15.7c1.47-.79,3.12-2.45,3.12-5.95,0-4.83-3.57-7.71-9.55-7.71H80.71a2.3,2.3,0,0,0-2.29,2.29V30.94H99.93c5.75,0,9.47-3.5,9.47-8.93A6.86,6.86,0,0,0,105.78,15.7Zm-6.39-2H86.84V18.8H99.73c1.71,0,3.75.54,3.75,3.13,0,2.13-1.87,3.22-5.55,3.22H85.59a1.34,1.34,0,0,1-1.33-1.34V9.21a1.34,1.34,0,0,1,1.33-1.33H97.5c4.15,0,5.48.71,5.48,2.94S102,13.73,99.39,13.73Z"/><path class="cls-19" d="M136.12,5.22V2H113.74a2.3,2.3,0,0,0-2.29,2.29V30.94h5.8V7.88h16.21A2.66,2.66,0,0,0,136.12,5.22Z"/><path class="cls-19" d="M119.87,16.42v2.95H132.7A2.27,2.27,0,0,0,135,17.11v-3H122.13A2.27,2.27,0,0,0,119.87,16.42Z"/><path class="cls-19" d="M158.57,15.93,173,2h-6.49a3,3,0,0,0-2.11.87l-8,7.88a2.06,2.06,0,0,1-2.86,0l-8.14-7.91A3,3,0,0,0,143.29,2H136.4l14.41,13.9-15.48,15h6.49a3,3,0,0,0,2.1-.86l9.11-9a2.06,2.06,0,0,1,2.87,0l9.22,9a3,3,0,0,0,2.09.85h7Z"/><path class="cls-19" d="M144.07,33.86a3,3,0,0,1,2.2.69,2.9,2.9,0,0,1,.67,2.06v1a2.87,2.87,0,0,1-.67,2,3,3,0,0,1-2.2.7h-5.53v2.56a.25.25,0,0,1-.29.29h-1.44c-.21,0-.31-.1-.31-.29V34.26a.35.35,0,0,1,.4-.4Zm-5.53,4.72h5.11a1.29,1.29,0,0,0,1-.29,1.26,1.26,0,0,0,.28-.89v-.51a1.26,1.26,0,0,0-.28-.89,1.29,1.29,0,0,0-1-.3h-4.93c-.12,0-.18.06-.18.16Z"/><path class="cls-19" d="M156.49,33.86a2.94,2.94,0,0,1,2.2.69,2.85,2.85,0,0,1,.67,2.06v.76a3.07,3.07,0,0,1-.47,1.82,2.24,2.24,0,0,1-1.52.85l2.29,2.83a.24.24,0,0,1,0,.2c0,.09-.09.13-.22.13h-1.72a.45.45,0,0,1-.24,0,.4.4,0,0,1-.13-.13l-2.11-2.78H151v2.66a.26.26,0,0,1-.3.29h-1.44a.26.26,0,0,1-.3-.29V34.26a.35.35,0,0,1,.4-.4ZM151,38.62h5.11a1.28,1.28,0,0,0,1-.29,1.22,1.22,0,0,0,.28-.89v-.56A1.26,1.26,0,0,0,157,36a1.33,1.33,0,0,0-1-.29h-4.94c-.11,0-.17.05-.17.16Z"/><path class="cls-19" d="M169.18,33.86a6.62,6.62,0,0,1,1.73.19,2.63,2.63,0,0,1,1.16.62,2.34,2.34,0,0,1,.65,1.09,5.77,5.77,0,0,1,.2,1.62v2.3a5.9,5.9,0,0,1-.2,1.63,2.38,2.38,0,0,1-.65,1.1,2.62,2.62,0,0,1-1.16.61,7.12,7.12,0,0,1-1.73.18h-4.12a7,7,0,0,1-1.72-.18,2.74,2.74,0,0,1-1.16-.61,2.56,2.56,0,0,1-.65-1.1,5.52,5.52,0,0,1-.21-1.63v-2.3a5.4,5.4,0,0,1,.21-1.62,2.52,2.52,0,0,1,.65-1.09,2.75,2.75,0,0,1,1.16-.62,6.54,6.54,0,0,1,1.72-.19Zm-5.81,5.67a3.72,3.72,0,0,0,.08.88,1.3,1.3,0,0,0,.29.56,1.16,1.16,0,0,0,.54.29,3.43,3.43,0,0,0,.86.09h4a3.38,3.38,0,0,0,.86-.09,1.26,1.26,0,0,0,.55-.29,1.29,1.29,0,0,0,.28-.56,3.67,3.67,0,0,0,.09-.88v-2a3.52,3.52,0,0,0-.09-.87,1,1,0,0,0-.83-.86,3.44,3.44,0,0,0-.86-.08h-4a3.49,3.49,0,0,0-.86.08,1.09,1.09,0,0,0-.54.3,1.19,1.19,0,0,0-.29.56,3.58,3.58,0,0,0-.08.87Z"/></g></g></svg>