<svg id="Capa_1" data-name="Capa 1" xmlns="http://www.w3.org/2000/svg" viewBox="0 0 200 50"><defs><style>.cls-1{fill:#dcddde;}</style></defs><title>bity-sinhover</title><g id="FXjbXw.tif"><path class="cls-1" d="M54.48,27.63l.49.28c3.34,1.9,4.81,4.48,4.29,7.91s-2.82,5.45-6,6.47a9.43,9.43,0,0,1-2.75.4c-4.16,0-8.33,0-12.49,0-1.77,0-2.25-.48-2.26-2.27V15.11c0-1.86.49-2.32,2.36-2.32,3.92,0,7.84-.11,11.76.05,5.75.25,9.29,5.42,7.31,10.72C56.62,25,55.44,26.2,54.48,27.63ZM39.05,29.25v10c4.22,0,8.32.13,12.41,0a4.34,4.34,0,0,0,4.35-3.81A5.12,5.12,0,0,0,51,29.31C47,29.07,43.07,29.25,39.05,29.25ZM39,25.85c3.84,0,7.51.19,11.16-.06a4.72,4.72,0,0,0,4.37-5.14A4.63,4.63,0,0,0,49.64,16c-3.43-.07-6.86,0-10.28,0-.13,0-.25.12-.37.18Z"/><path class="cls-1" d="M99.85,15.83H91.31a3.13,3.13,0,0,1-1.45-.11c-.48-.28-1.06-.83-1.1-1.3a2.06,2.06,0,0,1,.83-1.5,2.81,2.81,0,0,1,1.56-.25h20.44a8.62,8.62,0,0,1,.88,0c1,.07,1.76.49,1.73,1.58s-.73,1.55-1.76,1.56H103v1.74q0,10.91-.11,21.83c0,.48.14,1.09-.1,1.43-.37.53-1,1.22-1.51,1.22s-1.1-.72-1.45-1.25c-.22-.36-.07-.95-.07-1.44q0-10.84,0-21.69Z"/><path class="cls-1" d="M130.6,18c.12,1.55.14,3.12.37,4.65a5.23,5.23,0,0,0,4.86,4.73,30.53,30.53,0,0,0,7.15,0,5.29,5.29,0,0,0,4.82-5.12c.22-2.42.16-4.87.19-7.31,0-1.12.17-2.13,1.59-2.13s1.7,1,1.7,2.1c0,2.29.1,4.6-.07,6.88-.36,4.81-2.59,7.27-7.34,8.36a19.42,19.42,0,0,1-10.15-.3c-4.12-1.25-6.2-4.06-6.23-8.33,0-2.25,0-4.49,0-6.74,0-1.15.4-1.94,1.63-2s1.63.86,1.62,2,0,2.15,0,3.22Z"/><path class="cls-1" d="M157.31,8.73c-.39.53-.63,1.2-1,1.29a2.62,2.62,0,0,1-1.87-.26c-1.3-.86-2.41-2-3.73-2.83A21.68,21.68,0,0,0,125,8.79c-.91.74-1.78,1.76-3,.62-.81-.74-.42-1.76,1-3a25,25,0,0,1,33.2.9A10.93,10.93,0,0,1,157.31,8.73Z"/><path class="cls-1" d="M116.7,18.27c1.47.27,1.35,1.46,1.1,2.56a21,21,0,0,0,.87,12.36,21.75,21.75,0,0,0,13.11,13c1.92.72,2.5,1.33,2.15,2.38s-1.22,1.2-3.17.54a25.3,25.3,0,0,1-16.71-23.61c.25-1.78.49-3.57.75-5.35.16-1.09.53-2.13,1.9-1.87"/><path class="cls-1" d="M164.27,25.29a25.56,25.56,0,0,1-16.92,23.93,1.6,1.6,0,0,1-2.29-.87c-.42-1,.24-1.66,1.16-2a22.32,22.32,0,0,0,9.54-6.57,21.75,21.75,0,0,0,4.89-18.44c-.05-.29-.23-.65-.12-.85.35-.62.73-1.54,1.25-1.65A2.05,2.05,0,0,1,163.44,20,49.48,49.48,0,0,1,164.27,25.29Z"/><path class="cls-1" d="M76,27.76c0,4.15,0,8.29,0,12.43a2.56,2.56,0,0,1-.22,1.41c-.38.47-1,1-1.52,1s-1-.75-1.38-1.24c-.15-.19-.07-.57-.07-.86q0-12.8,0-25.59c0-.34-.09-.78.09-1,.36-.45.88-1.09,1.33-1.09a2.6,2.6,0,0,1,1.56,1c.24.26.21.82.22,1.25,0,4.24,0,8.48,0,12.72Z"/><path class="cls-1" d="M140.78,37.94a18.55,18.55,0,0,1-.06,3.5c-.12.58-.9,1-1.38,1.55-.5-.49-1.4-1-1.44-1.5a55.18,55.18,0,0,1,0-7.16,2.14,2.14,0,0,1,1.41-1.48c.94-.17,1.47.59,1.47,1.58,0,1.17,0,2.34,0,3.51Z"/></g></svg>