<svg id="Capa_1" data-name="Capa 1" xmlns="http://www.w3.org/2000/svg" viewBox="0 0 200 50"><defs><style>.cls-1{fill:#dcddde;}</style></defs><title>changelly-sinhover</title><g id="XXlCnA.tif"><path class="cls-1" d="M51,2.05C50.89,3,50.82,4,50.72,5a48.19,48.19,0,0,1-4.36,16.56,24.36,24.36,0,0,1-7.07,8.57,2.09,2.09,0,0,0-.69,1.06c-.54,2-1,4-1.53,6a3.32,3.32,0,0,1-1.47,2.2l-7.5,4.52a3.41,3.41,0,0,1-.46.16l.93-2.17A13.89,13.89,0,0,0,30,36.74c0-1.34-.21-1.51-1.54-1.69a13.74,13.74,0,0,1-2.55-.68.72.72,0,0,0-.92.21A4.16,4.16,0,0,1,21.53,36c-1.33,0-2.66,0-4,0-.54,0-.75-.18-.74-.73,0-1.48,0-3,0-4.44a3.81,3.81,0,0,1,1.43-3c.35-.28.33-.51.22-.9a30.69,30.69,0,0,1-.73-3c-.14-.76-.45-1.19-1.37-1.08a29.52,29.52,0,0,0-4.13.89,22.82,22.82,0,0,0-2.63,1.09,1.23,1.23,0,0,1-.72.1c.16-.3.3-.6.48-.89l3.91-6.47A3.91,3.91,0,0,1,16,15.74c1.92-.42,3.83-.92,5.72-1.44a2.22,2.22,0,0,0,1.12-.74A25.45,25.45,0,0,1,34.87,5,52.47,52.47,0,0,1,48.26,2.16a3.69,3.69,0,0,0,.45-.11ZM26.69,32.42c.24.12.36.21.5.26a6.22,6.22,0,0,0,5-.37A33.1,33.1,0,0,0,40,26.74a21.37,21.37,0,0,0,5.55-8.46,49.18,49.18,0,0,0,3-12.59c.06-.46.07-.93.1-1.4a1,1,0,0,0-.29,0,51.59,51.59,0,0,0-13,2.85,22.71,22.71,0,0,0-8.87,5.43A49.58,49.58,0,0,0,23,16.7a15.87,15.87,0,0,0-3,5.36,5.44,5.44,0,0,0,.38,4.11c1-.79,1.92-1.53,2.86-2.26a8.61,8.61,0,0,1,3.4-2c1.62-.36,3.22-.78,4.84-1.16a5.18,5.18,0,0,1,.72-.09c-.06.33-.09.57-.14.79-.35,1.46-.72,2.92-1.05,4.38a7,7,0,0,1-1.5,3C28.59,30,27.68,31.17,26.69,32.42Zm2.75-9c-1.54.33-2.93.52-4.08,1.48Q22.71,27.13,20,29.19c-1.2.89-1.16,2.06-1.05,3.48l6.64-5.47.12.12-5.44,6.57A3.39,3.39,0,0,0,24,32.51c1.26-1.78,2.67-3.46,4.06-5.15C29,26.24,29.11,24.89,29.44,23.43ZM13.64,21a9.91,9.91,0,0,1,2.88-.13c1.48.38,1.94-.35,2.37-1.5a22.44,22.44,0,0,1,1.32-2.48c-.3,0-.48.07-.66.11a21.73,21.73,0,0,1-2.45.58,3,3,0,0,0-2.46,1.75C14.36,19.92,14,20.43,13.64,21ZM36,32.7c-1.34.64-2.63,1.25-3.9,1.9-.14.07-.21.38-.2.58,0,.76.12,1.52.11,2.28a16.91,16.91,0,0,1-.23,1.79,11.62,11.62,0,0,1,1.18-.7,4,4,0,0,0,2.47-3.46A19.76,19.76,0,0,1,36,32.7Z"/><path class="cls-1" d="M199.5,16.9c-.83,2-1.67,4-2.49,6-1.55,3.78-3.08,7.56-4.63,11.34a15.83,15.83,0,0,1-.69,1.44c-1.67,3.19-4.34,3.79-7.53,2.79-1.16-.36-1.15-.4-.67-1.54a5,5,0,0,0,.21-.48c.14-.48.37-.48.84-.36a9.4,9.4,0,0,0,2.46.37,2.88,2.88,0,0,0,2.3-1.59,2.4,2.4,0,0,0,.19-2.68c-2.3-4.87-4.52-9.78-6.76-14.68-.12-.26-.21-.53-.37-.93,1,0,1.9,0,2.79,0,.17,0,.34.43.45.68l5.48,12.51c.06.15.15.3.27.54.13-.29.23-.48.3-.68,1.6-4.12,3.2-8.23,4.76-12.36a1,1,0,0,1,1.17-.8c.63,0,1.28,0,1.92,0Z"/><path class="cls-1" d="M144.45,29.09a7.86,7.86,0,0,1-6.77,3.16,8,8,0,0,1-5.76-2.76,8.34,8.34,0,0,1,.46-11.06,8.35,8.35,0,0,1,12.22.88c0-.77,0-1.42,0-2.06s.15-.77.72-.76c2.39,0,2-.29,2,1.92q0,6.07,0,12.13a8.82,8.82,0,0,1-1.38,5,7.43,7.43,0,0,1-5.67,3.16,13.35,13.35,0,0,1-8.74-1.83c-.74-.46-.73-.46-.29-1.21.75-1.28.76-1.28,2-.58a10.25,10.25,0,0,0,7,1.23,5.09,5.09,0,0,0,4.38-5c0-.72,0-1.44,0-2.17Zm-11.63-4.9a5.58,5.58,0,0,0,5.74,5.67,6,6,0,0,0,6.16-5.67,5.94,5.94,0,0,0-6.17-5.66A5.51,5.51,0,0,0,132.82,24.19Z"/><path class="cls-1" d="M153.33,26.24a5.79,5.79,0,0,0,2.82,4.54,6.56,6.56,0,0,0,7.79-1.07c.45-.42.73-.42,1.14,0,1.23,1.19,1.4.9,0,2.1A8.87,8.87,0,0,1,153,31.4c-3.87-4-2.94-11.36,1.79-14.16a7.74,7.74,0,0,1,11.31,4,11.62,11.62,0,0,1,.66,4.09c0,.65-.24.83-.86.83-3.87,0-7.74,0-11.62,0C154,26.18,153.69,26.21,153.33,26.24Zm.08-2.37c.25,0,.51.05.76.05,2.79,0,5.58,0,8.36,0,1.51,0,1.69.39,1.15-1.53a5,5,0,0,0-5.83-3.85A5.73,5.73,0,0,0,153.41,23.87Z"/><path class="cls-1" d="M105.23,31.4a7.6,7.6,0,0,1-3.48,2.19,7.9,7.9,0,0,1-6.45-.8A4.82,4.82,0,0,1,93,28.12a4.91,4.91,0,0,1,3.3-4.48c2.52-1,5.12-.8,7.72-.37l.06,0c1.32.28,1.44.16,1.21-1.21a4,4,0,0,0-3.86-3.3,11,11,0,0,0-5.51.91c-.45.22-.69.17-.88-.35-.6-1.71-.62-1.7,1.13-2.3a13,13,0,0,1,6.79-.57,6,6,0,0,1,5.06,6c0,3.49,0,7,0,10.47,0,.56-.23.71-.75.72-1.86,0-1.86,0-2-1.8C105.29,31.73,105.27,31.64,105.23,31.4ZM100.87,25a8.12,8.12,0,0,0-3.38.7,3,3,0,0,0-1.81,2.72A2.91,2.91,0,0,0,97.3,31.1a5.39,5.39,0,0,0,3.07.61c3.2-.18,5.08-2.15,5-5.26,0-.53-.2-.77-.7-.84Z"/><path class="cls-1" d="M77.91,9.55V19c.65-.6,1.16-1.16,1.74-1.61,2.58-2,8.1-1.79,9.79,2.21a8.54,8.54,0,0,1,.71,3.06c.08,3.38,0,6.76,0,10.14,0,.6-.2.82-.8.81-2.26,0-1.88.28-1.9-1.89,0-2.83,0-5.65,0-8.48A4.69,4.69,0,0,0,86.3,20a4.55,4.55,0,0,0-4.64-1.23,4.49,4.49,0,0,0-3.52,3.42A6.47,6.47,0,0,0,78,24c0,2.9,0,5.79,0,8.68,0,.91,0,1-.92,1-2.11,0-1.77.22-1.77-1.73,0-6.74,0-13.47,0-20.21A1.11,1.11,0,0,1,76,10.44C76.59,10.2,77.17,9.9,77.91,9.55Z"/><path class="cls-1" d="M114.77,19.21a6.6,6.6,0,0,1,3.28-2.64c4.2-1.31,8.73.56,8.93,5.77.14,3.51.08,7,.12,10.53,0,.55-.22.76-.75.74a9.61,9.61,0,0,0-1.2,0c-.58,0-.77-.21-.76-.78,0-2.91,0-5.83,0-8.74a10.13,10.13,0,0,0-.18-1.91,4.09,4.09,0,0,0-3.64-3.51,4.74,4.74,0,0,0-5.13,2.49,7.53,7.53,0,0,0-.64,2.8c-.08,2.92,0,5.83,0,8.75,0,.86,0,.9-.9.89-2.11,0-1.8.25-1.8-1.77,0-4.8,0-9.59,0-14.38,0-.94,0-1,1-.95,2,0,1.71-.22,1.74,1.71Z"/><path class="cls-1" d="M59.61,24.21c0,3.94,1.84,6.47,4.65,7.14a6.15,6.15,0,0,0,5.85-1.7c.73-.68.73-.68,1.47,0l0,0c1,1,1,1,0,1.9a8.52,8.52,0,0,1-9.27,1.7,8.3,8.3,0,0,1-5.44-7.17,8.7,8.7,0,0,1,7.29-9.86A8.51,8.51,0,0,1,72,18.82c.35.36.32.6,0,.92s-.74,1-1.17,1.1S70,20.3,69.55,20a6.07,6.07,0,0,0-9.94,4.24Z"/><path class="cls-1" d="M4.51,45.59a2.68,2.68,0,0,0,.5.17A30.48,30.48,0,0,0,18.66,44.1a17.8,17.8,0,0,0,6.6-4.43l.17.14A27.05,27.05,0,0,1,23.7,42a17.94,17.94,0,0,1-8.64,5,31.25,31.25,0,0,1-13.16.48L.5,47.23c.49-.58.87-1.06,1.27-1.52A27.9,27.9,0,0,0,6.51,37a29.57,29.57,0,0,1,4.33-7.86.82.82,0,0,1,.49-.34c-.33.69-.71,1.36-1,2.07-1,2.83-2,5.66-3,8.5a25.39,25.39,0,0,1-2.66,5.83C4.66,45.26,4.62,45.39,4.51,45.59Z"/><path class="cls-1" d="M179.88,9.54v23.1c0,1,0,1-1,1-2,0-1.74.21-1.74-1.73,0-6.68,0-13.37,0-20.06a1.27,1.27,0,0,1,.89-1.4C178.62,10.19,179.15,9.89,179.88,9.54Z"/><path class="cls-1" d="M172.74,10.62c0,.44.06.69.06,1v21c0,1,0,1-1.05,1-1.95,0-1.64.18-1.65-1.66,0-6.39,0-12.77,0-19.15a1.13,1.13,0,0,1,.78-1.26C171.46,11.29,172,11,172.74,10.62Z"/><path class="cls-1" d="M38.4,19.57a5.09,5.09,0,0,1-5.12-5.15,5.2,5.2,0,0,1,5.19-5.19,5.31,5.31,0,0,1,5.2,5.24A5.14,5.14,0,0,1,38.4,19.57Zm3.13-5.1a3,3,0,0,0-3-3.12,3.15,3.15,0,0,0-3.19,3.11,3.2,3.2,0,0,0,3.12,3.08A3.1,3.1,0,0,0,41.53,14.47Z"/></g></svg>