<svg id="Capa_1" data-name="Capa 1" xmlns="http://www.w3.org/2000/svg" viewBox="0 0 200 50"><defs><style>.cls-1{fill:#dcddde;}</style></defs><title>shapeshift-sinhover</title><g id="dQFUTS.tif"><path class="cls-1" d="M18.85,45.13a35.39,35.39,0,0,0-9.52-9.26c-2.46-1.64-5-3.14-7.6-4.6a1.59,1.59,0,0,1-.89-2.15,9,9,0,0,1,.25-.89c2.3-4.9,1.93-9.89.76-15C1.24,10.6,1,7.87.5,4.92c.9.15,1.45.21,2,.34a4.17,4.17,0,0,1,1,.4,33.32,33.32,0,0,0,20,3.92,9.38,9.38,0,0,0,2.41-.49C29.07,7.9,32.2,6.6,35.36,5.4a15.91,15.91,0,0,1,2.44-.53A92.33,92.33,0,0,1,36.26,14a23.6,23.6,0,0,0,.91,15c.44,1.14.06,1.67-.91,2.32-4,2.68-8.07,5.32-11.86,8.29-1.92,1.5-3.3,3.66-4.92,5.53Zm-12.19-25H31.72c-2.31-2.71-4.44-5.26-6.65-7.74a2.18,2.18,0,0,0-1.47-.58c-3.18-.05-6.36,0-9.54,0a1.78,1.78,0,0,0-1.25.37C10.75,14.76,8.76,17.39,6.66,20.14ZM30.9,22.52H7.09l12,10.24Zm2.38-4L35.05,7.9l-8.11,3.2ZM3.17,7.94,5,18.64l5.78-7.54ZM33.32,23.37l-9.8,8.51.19.36,11.2-3.06Zm-18.49,9,.12-.22L4.82,23.52,3.15,29.19Zm7.86,5.53,5.86-4.67-8.06,2.23Zm-4.9-2.45-7.21-1.9-.1.31,5.09,4Z"/><path class="cls-1" d="M68.15,18.7l-1.88,1.19c-2.18-2.46-5-3.06-8.06-2.48a3.93,3.93,0,0,0-2,.78c-.71.73-1.59,1.76-1.55,2.62a3.33,3.33,0,0,0,1.81,2.38,45.4,45.4,0,0,0,5.74,1.42,21.86,21.86,0,0,1,3.43,1,5.6,5.6,0,0,1,1.72,9c-3.72,3.86-12.9,3-15.78-1.53-.19-.3-.33-.63-.54-1l2.15-1.31a7.43,7.43,0,0,0,6,3.63,15.85,15.85,0,0,0,5-.84,2.89,2.89,0,0,0,1.91-3.09,2.79,2.79,0,0,0-2-2.67c-1.77-.57-3.64-.86-5.44-1.33a22.48,22.48,0,0,1-4-1.24A5.09,5.09,0,0,1,53,17.3C55.93,13.76,65.94,13.55,68.15,18.7Z"/><path class="cls-1" d="M156.79,18.67l-1.9,1.21a8.11,8.11,0,0,0-8.18-2.44,5.94,5.94,0,0,0-2.14.89c-2.09,1.42-1.91,4,.45,4.88a52.23,52.23,0,0,0,5.74,1.4,20.52,20.52,0,0,1,3.58,1.06,5.59,5.59,0,0,1,1.56,9c-3.2,3.24-13.06,3.7-16.08-2.23a2.17,2.17,0,0,1-.11-.45l2.07-1.26a8.34,8.34,0,0,0,8.95,3.53,7.34,7.34,0,0,0,2.47-.91A3,3,0,0,0,153,28a43.19,43.19,0,0,0-5.84-1.55,22.45,22.45,0,0,1-4-1.27,5.1,5.1,0,0,1-1.37-8C144.74,13.9,154.27,13.47,156.79,18.67Z"/><path class="cls-1" d="M107.73,34.17v9.38h-2.35V21.63h2.26l.21,2.37c2.27-2.31,4.8-3.3,7.85-2.44a7.2,7.2,0,0,1,4.23,3c2.17,3.34,1.52,8.26-1.39,10.63C115.36,37.8,111.05,37.49,107.73,34.17Zm5.61-10.4a5.19,5.19,0,0,0-5.28,5.33,5.32,5.32,0,0,0,5.25,5.42,5.2,5.2,0,0,0,5.33-5.45A5.1,5.1,0,0,0,113.34,23.77Z"/><path class="cls-1" d="M125.54,30.1a4.16,4.16,0,0,0,2.59,3.75c2.68,1.19,5.17.65,7.6-1.19L137.25,34c-1.15,2.14-5.46,3.43-8.83,2.53A7.25,7.25,0,0,1,122.84,30c-.64-7.23,5.92-10.45,11.55-8.12a6.93,6.93,0,0,1,3.9,7.31,1.6,1.6,0,0,1-1.25.85c-3.23.08-6.46.05-9.69.05Zm10.08-2.4c-.16-2.69-1.84-4.13-4.71-4.21s-5,1.6-5.27,4.21Z"/><path class="cls-1" d="M100.41,23.59l.17-2h2.33v15h-2.26l-.42-1.91c-4.27,3.08-8.37,3-11.2-.11a8.5,8.5,0,0,1-.1-10.74C91.8,20.52,95.85,20.44,100.41,23.59Zm-.07,5.49a5.16,5.16,0,0,0-5.18-5.43,5.36,5.36,0,0,0-5.57,5.45,5.29,5.29,0,0,0,5.33,5.49A5.17,5.17,0,0,0,100.34,29.08Z"/><path class="cls-1" d="M73.35,23.74c2.05-2,4.05-2.74,6.44-2.33,2.78.48,4.74,2.07,5,4.81.27,3.39.06,6.81.06,10.31H82.45V31.31c0-1.09,0-2.18,0-3.26-.11-2.67-1.52-4.2-3.94-4.31a4.49,4.49,0,0,0-4.87,3.87c-.23,2.16-.17,4.34-.23,6.51,0,.77,0,1.53,0,2.4H71V15.28h2.35Z"/><path class="cls-1" d="M173.57,36.56H171c0-2.84,0-5.62,0-8.39s-1.69-4.52-4.3-4.46a4.45,4.45,0,0,0-4.52,3.93c-.23,2.26-.15,4.55-.2,6.83,0,.66,0,1.32,0,2.07h-2.43V15.27h2.37v8.34c2-1.79,4-2.62,6.35-2.22a5.77,5.77,0,0,1,5.18,5.37c.1.92.1,1.86.11,2.79C173.58,31.83,173.57,34.1,173.57,36.56Z"/><path class="cls-1" d="M183.9,23.92h-2.83c-.56-2.13-.56-2.13,2.7-2.45.08-2,0-4.25,2-5.49a18.56,18.56,0,0,1,3.79-1.31c-.17,1.6-.26,2.47-1.73,2.92-1.68.53-1.48,2.28-1.59,3.88l3,.21v2.17h-3V36.54H183.9Z"/><path class="cls-1" d="M193.63,23.9h-2.86V21.67l2.86-.18V19.32c0-2.21.08-2.27,2.61-2v4.2l3.11.19v2.18h-3c0,3.14-.06,6.17.06,9.18a1.9,1.9,0,0,0,1.36,1.26c1.53.11,1.76,1,1.67,2.18-3.33,1-5.77-.91-5.84-4.66C193.6,29.25,193.63,26.68,193.63,23.9Z"/><path class="cls-1" d="M178.46,36.56h-2.35V21.85h2.35Z"/><path class="cls-1" d="M178.44,19.75h-2.31V17.36h2.31Z"/></g></svg>