<svg xmlns="http://www.w3.org/2000/svg" xmlns:xlink="http://www.w3.org/1999/xlink" viewBox="0 0 715.57 95.5"><defs><style>.cls-1{fill:#0e0c1f;}.cls-2{fill:url(#Degradado_sin_nombre_4);}.cls-3{fill:url(#Degradado_sin_nombre_4-2);}.cls-4{fill:url(#Degradado_sin_nombre_4-3);}.cls-5{fill:url(#Degradado_sin_nombre_4-4);}.cls-6{fill:url(#Degradado_sin_nombre_4-5);}.cls-7{fill:#2c465e;}.cls-8{fill:#d4e8ff;}.cls-9{fill:#e1eeff;}.cls-10{fill:#6b8092;}.cls-11{fill:#587185;}.cls-12{fill:#91a9bf;}.cls-13{fill:#34506b;}.cls-14{fill:#4b6278;}.cls-15{fill:#223649;}.cls-16{fill:#546c7f;}</style><linearGradient id="Degradado_sin_nombre_4" x1="605.41" y1="39.47" x2="604.85" y2="84.12" gradientUnits="userSpaceOnUse"><stop offset="0" stop-color="#b2bdc7"/><stop offset="1" stop-color="#72859e"/></linearGradient><linearGradient id="Degradado_sin_nombre_4-2" x1="649.12" y1="40.02" x2="648.57" y2="84.67" xlink:href="#Degradado_sin_nombre_4"/><linearGradient id="Degradado_sin_nombre_4-3" x1="693.43" y1="40.57" x2="692.88" y2="85.23" xlink:href="#Degradado_sin_nombre_4"/><linearGradient id="Degradado_sin_nombre_4-4" x1="541.77" y1="7.12" x2="541.77" y2="103.22" xlink:href="#Degradado_sin_nombre_4"/><linearGradient id="Degradado_sin_nombre_4-5" x1="541.76" y1="7.12" x2="541.76" y2="103.22" xlink:href="#Degradado_sin_nombre_4"/></defs><title>Recurso 10</title><g id="Capa_2" data-name="Capa 2"><g id="Capa_1-2" data-name="Capa 1"><path class="cls-1" d="M255.12,13.28q10.13,0,14.41,4t4.28,12.1v4.69q0,8.2-6.29,12.4,6.78,3.9,6.78,12.59v5.66a25.81,25.81,0,0,1-.88,7,12.26,12.26,0,0,1-8.27,8.69,25.23,25.23,0,0,1-8.26,1.17H198.44c-2,0-2.95-1-2.95-2.93V16.2c0-1.95,1-2.92,2.95-2.92Zm-44.58,28.4h40.35c3.27,0,5.51-.48,6.69-1.46a5.27,5.27,0,0,0,1.77-4.3V32.6a5.46,5.46,0,0,0-1.72-4.44c-1.15-.94-3-1.41-5.56-1.41H211.82A1.13,1.13,0,0,0,210.54,28Zm0,10.64V66.87a1.13,1.13,0,0,0,1.28,1.27h40.35q3.93,0,5.61-1.42t1.67-4.54V58.47a5.75,5.75,0,0,0-1.82-4.59c-1.22-1-3.47-1.56-6.74-1.56Z"/><path class="cls-1" d="M306.28,13.28a1.9,1.9,0,0,1,2.17,2.14v64a1.91,1.91,0,0,1-2.17,2.15H295.66c-1.51,0-2.27-.72-2.27-2.15v-64c0-1.43.76-2.14,2.27-2.14Z"/><path class="cls-1" d="M403.89,13.28c1.51,0,2.27.71,2.27,2.14V25a2,2,0,0,1-2.27,2.24H373V79.46a1.91,1.91,0,0,1-2.16,2.15H360.11a1.91,1.91,0,0,1-2.17-2.15V27.23H327A2,2,0,0,1,324.78,25V15.42c0-1.43.75-2.14,2.26-2.14Z"/><path class="cls-1" d="M490.48,13.28c1.51,0,2.26.71,2.26,2.14V24.7c0,1.43-.75,2.15-2.26,2.15h-43a26.72,26.72,0,0,0-6.35.63,8.55,8.55,0,0,0-4,2.15A8.16,8.16,0,0,0,435,33.72a29.67,29.67,0,0,0-.58,6.4v1H490a1.9,1.9,0,0,1,2.16,2.15V51A1.9,1.9,0,0,1,490,53.1H434.4v1.66a29.67,29.67,0,0,0,.58,6.4,8.24,8.24,0,0,0,2.12,4.1,8.54,8.54,0,0,0,4,2.14,26.16,26.16,0,0,0,6.35.64h43c1.51,0,2.26.71,2.26,2.15v9.27c0,1.43-.75,2.15-2.26,2.15H447.19a50.84,50.84,0,0,1-12.7-1.37A19.48,19.48,0,0,1,426,75.8a17.94,17.94,0,0,1-4.82-8,40.65,40.65,0,0,1-1.53-12V39.05a40.18,40.18,0,0,1,1.53-11.91,18,18,0,0,1,4.82-8,20,20,0,0,1,8.51-4.49,49.32,49.32,0,0,1,12.7-1.41Z"/><path class="cls-2" d="M611.41,29.4h-24.5a1,1,0,0,0-1,1V65.06a1,1,0,0,0,1,1h5.36a1,1,0,0,0,1-1V37.9a1,1,0,0,1,1-1h17.08c3.93,0,6.28,2.25,6.28,6S615.28,49,611.41,49H597.58a1,1,0,0,0-1,1v5.2a1,1,0,0,0,1,1h13.83c8.26,0,13.6-5.32,13.6-13.55S619.8,29.4,611.41,29.4Z"/><path class="cls-3" d="M662.16,56.23a1.43,1.43,0,0,1,.2-2.18c3.41-2.28,5.32-6.19,5.32-11.1,0-8.36-5.17-13.55-13.5-13.55H629.55a1.43,1.43,0,0,0-1.43,1.43V64.66a1.43,1.43,0,0,0,1.43,1.43h4.55a1.43,1.43,0,0,0,1.43-1.43V38.3A1.43,1.43,0,0,1,637,36.87h17.22c4.07,0,6.13,2.08,6.13,6.18,0,4.29-2.06,6.47-6.13,6.47h-14A1.43,1.43,0,0,0,638.78,51v3.87a1.44,1.44,0,0,0,1.44,1.44h11.54a1.44,1.44,0,0,1,1.06.46l8.11,8.91a1.44,1.44,0,0,0,1.05.46h6.52a1.42,1.42,0,0,0,1-2.43Z"/><path class="cls-4" d="M697.59,29.4H689c-10.5,0-17.83,7.4-17.83,18S678.8,66.09,689,66.09h8.63c10.25,0,18-8,18-18.71S708.17,29.4,697.59,29.4Zm0,29.23H689c-6,0-10.36-4.61-10.36-11S683,36.87,689,36.87h8.63c6.19,0,10.51,4.44,10.51,10.81S703.68,58.63,697.59,58.63Z"/><path class="cls-5" d="M562.79,28.63l13.72-12.49,0,0a2.15,2.15,0,0,0,.67-2.19c-.13-.48-.59-1.28-2.13-1.28H564.58a4.16,4.16,0,0,0-1.85.34,4.32,4.32,0,0,0-1.16.83L541.76,31.3,522,13.84A4.57,4.57,0,0,0,520.8,13a4.16,4.16,0,0,0-1.85-.34H508.46c-1.54,0-2,.8-2.13,1.28a2.16,2.16,0,0,0,.69,2.21l17.6,16,16.22,15.27h1.85Z"/><path class="cls-6" d="M562.79,66.26l-20.1-18.82h-1.85L524.62,62.72,507,78.77a2.13,2.13,0,0,0-.67,2.18c.16.59.67,1.29,2.13,1.29H519a4.16,4.16,0,0,0,1.85-.34,4.32,4.32,0,0,0,1.16-.83l19.8-17.49,19.78,17.47a4.57,4.57,0,0,0,1.19.85,4.16,4.16,0,0,0,1.85.34h10.49c1.54,0,2-.81,2.13-1.29a2.13,2.13,0,0,0-.67-2.18Z"/><polygon class="cls-7" points="157.29 57.82 158.84 60.11 154.4 61.03 157.29 57.82"/><polygon class="cls-8" points="180.23 51.47 175.11 60.11 173.35 58.27 180.23 51.47"/><polygon class="cls-9" points="173.35 58.27 175.11 60.11 165.63 63.3 165.05 61.03 173.35 58.27"/><polygon class="cls-10" points="165.05 61.03 165.63 63.3 154.4 61.03 158.84 60.11 165.05 61.03"/><path class="cls-11" d="M155.15,75.21,152.3,78.4V69.21C152.39,69.76,155.15,75.21,155.15,75.21Z"/><path class="cls-12" d="M180.23,51.47,178.13,61,169,68.84l-13.84,6.37s-2.76-5.45-2.85-6v0c.08-.25,2.1-8.14,2.1-8.14l11.23,2.27,9.48-3.19Z"/><path class="cls-10" d="M140.72,28.24l1.85,10.23,3.94,13.67,2.27,2.18,1.93,4.87L154.4,61s-2,7.89-2.1,8.14V78.4l-7.8,3.77-15-13.59-4.86-13.37,7-24.43,2,.93,1.57-1.85,1.71-4.81ZM145.14,61,144,59.19l-1.87-2.32.22,3.24Z"/><polygon class="cls-12" points="166.73 47.36 157.29 57.82 154.4 61.03 150.71 59.19 148.78 54.33 166.73 47.36"/><polygon class="cls-7" points="151.07 49.76 148.78 54.33 146.51 52.14 151.07 49.76"/><polygon class="cls-8" points="166.73 47.36 148.78 54.33 151.07 49.76 166.73 47.36"/><polygon class="cls-8" points="147.27 36.79 151.07 49.76 146.51 52.14 142.57 38.47 147.27 36.79"/><polygon class="cls-12" points="146.17 27.48 147.27 36.79 142.57 38.47 140.72 28.24 146.17 27.48"/><polygon class="cls-9" points="150.95 18.42 150.53 20.99 145.41 26.88 144.62 26.24 149.7 20.52 150.19 17.8 150.95 18.42"/><polygon class="cls-10" points="150.19 17.8 149.7 20.52 144.62 26.24 140.07 22.59 147.27 18.22 150.19 17.8"/><path class="cls-11" d="M125.85,11.18l-4.14.9C120.49,11.75,94.17.18,93.76,0Z"/><path class="cls-9" d="M145.41,26.88l.76.61-5.45.75-3.82-3.19,0,0-8.05-6.9h-.06l-7-6,4.14-.9,14.22,11.41,4.55,3.65Z"/><polygon class="cls-9" points="128.82 18.19 129.76 27.61 127.92 29.08 126.69 18.62 128.75 18.13 128.82 18.19"/><polygon class="cls-12" points="131.6 30.78 127.92 29.08 129.76 27.61 135.19 29.86 133.62 31.7 131.6 30.78"/><path class="cls-11" d="M136.9,25.05l-1.71,4.81-5.43-2.25-.94-9.42,5.12,4.4L136.86,25Z"/><path class="cls-7" d="M127.92,29.08l3.68,1.7-7,24.43h-14.2l11.29-43.13,7,6-2.06.49Z"/><path class="cls-11" d="M79.89,78.4l1.36.89s-3.82,6.26-4,6.38a41.3,41.3,0,0,1-4.43-2Z"/><polygon class="cls-7" points="74.86 72.58 79.89 78.4 72.77 83.65 68.37 75.21 74.86 72.58"/><polygon class="cls-13" points="88.72 74.48 81.25 79.29 79.89 78.4 87.27 73.78 88.72 74.48"/><polygon class="cls-14" points="90.01 67.37 90.86 69.82 88.72 74.48 87.27 73.78 90.01 67.37"/><path class="cls-15" d="M89.29,65.31,90,67.37l-2.74,6.41L79.89,78.4l-5-5.82,6.39-5.37,2.61-8,4.08-.61Z"/><path class="cls-10" d="M102.48,81.3l1.39,9.18S93.08,90.14,92.75,90s2.12-8.73,2.12-8.73Z"/><polygon class="cls-9" points="109.41 85.89 103.87 90.47 102.48 81.3 103.99 80.86 109.41 85.89"/><polygon class="cls-10" points="105.05 68.44 103.99 80.86 102.48 81.3 102.7 68.56 105.05 68.44"/><polygon class="cls-9" points="108.86 55.44 105.05 68.44 102.7 68.56 108.18 47.36 111.53 46.3 108.86 55.44"/><polygon class="cls-12" points="96.44 29.08 111.53 46.3 108.18 47.36 96.44 29.08"/><path class="cls-11" d="M87.94,58.58l-2-10c.44-.9,10.51-19.46,10.51-19.46l11.74,18.28-5.48,21.2-.22,12.74H94.87l-4-11.48L90,67.37l-.72-2.06Z"/><path class="cls-10" d="M83.86,59.19l0-.18h0L69.62,6.18l0-.08L93.75,0h0c.41.18,26.73,11.75,27.95,12.08L110.42,55.21l-1.56.23,2.68-9.14L96.44,29.08S86.37,47.64,85.93,48.54l2,10Z"/><polygon class="cls-14" points="69.62 6.18 83.81 59 56 61.96 36.27 56.68 40.26 7.6 69.62 6.18"/><polygon class="cls-16" points="83.81 59 83.81 59.01 54.74 66.99 56 61.96 83.81 59"/><polygon class="cls-15" points="56 61.96 54.74 66.99 36.27 56.68 56 61.96"/><polygon class="cls-10" points="50.97 81.99 46.05 86.61 39.23 89.74 45.49 83.47 50.97 81.99"/><polygon class="cls-7" points="45.49 83.47 39.23 89.74 37.05 85.49 42.25 81.99 45.49 83.47"/><polygon class="cls-11" points="50.97 81.99 45.49 83.47 42.25 81.99 44.42 80.68 50.97 81.99"/><polygon class="cls-13" points="38.22 72.4 44.42 80.68 42.25 81.99 36.21 73.61 38.22 72.4"/><polygon class="cls-14" points="36.27 56.68 38.22 72.4 36.21 73.61 33.9 58.4 36.27 56.68"/><polygon class="cls-15" points="36.21 73.61 42.25 81.99 37.05 85.49 26.31 79.9 22.19 67.03 22.13 66.94 33.9 58.4 36.21 73.61"/><path class="cls-11" d="M9.2,88.62l1.28,6.88S0,93.74,0,93.65l2.49-6Z"/><polygon class="cls-10" points="11.71 87.7 15.15 93.82 10.48 95.5 9.2 88.62 11.71 87.7"/><polygon class="cls-9" points="17.34 70.42 11.71 87.7 9.2 88.62 12.97 70.36 17.34 70.42"/><polygon class="cls-12" points="36.27 56.68 33.9 58.4 22.13 66.94 17.34 70.42 12.97 70.36 30.5 54.15 36.27 56.68"/><polygon class="cls-11" points="40.26 7.6 36.27 56.68 30.5 54.15 40.26 7.6"/><polygon class="cls-13" points="40.26 7.6 30.5 54.15 12.97 70.36 9.2 88.62 2.49 87.7 0 73.61 4.53 60.57 9.2 22.41 40.26 7.6"/></g></g></svg>