<svg id="Capa_1" data-name="Capa 1" xmlns="http://www.w3.org/2000/svg" xmlns:xlink="http://www.w3.org/1999/xlink" viewBox="0 0 100 100"><defs><style>.cls-1{fill:#6b8092;}.cls-2{clip-path:url(#clip-path);}.cls-3{fill:#0e0c1f;}.cls-4{fill:#2c465e;}.cls-5{fill:#d4e8ff;}.cls-6{fill:#e1eeff;}.cls-7{fill:#587185;}.cls-8{fill:#91a9bf;}.cls-9{fill:url(#Degradado_sin_nombre_4);}.cls-10{fill:url(#Degradado_sin_nombre_4-2);}</style><clipPath id="clip-path"><rect class="cls-1" x="0.79" y="0.5" width="98.41" height="99" rx="49.21"/></clipPath><linearGradient id="Degradado_sin_nombre_4" x1="71.08" y1="18.71" x2="71.08" y2="46.83" gradientUnits="userSpaceOnUse"><stop offset="0" stop-color="#b2bdc7"/><stop offset="1" stop-color="#72859e"/></linearGradient><linearGradient id="Degradado_sin_nombre_4-2" x1="71.08" y1="18.71" x2="71.08" y2="46.83" xlink:href="#Degradado_sin_nombre_4"/></defs><title>logomal2</title><rect class="cls-1" x="0.79" y="0.5" width="98.41" height="99" rx="49.21"/><g class="cls-2"><rect class="cls-3" x="0.79" y="0.5" width="98.41" height="99" rx="49.21"/><polygon class="cls-4" points="64.43 63.74 66.55 66.88 60.46 68.14 64.43 63.74"/><polygon class="cls-5" points="95.84 55.05 88.84 66.88 86.42 64.35 95.84 55.05"/><polygon class="cls-6" points="86.42 64.35 88.84 66.88 75.85 71.25 75.05 68.14 86.42 64.35"/><polygon class="cls-1" points="75.05 68.14 75.85 71.25 60.46 68.14 66.55 66.88 75.05 68.14"/><path class="cls-7" d="M61.49,87.56l-3.9,4.36V79.33C57.71,80.09,61.49,87.56,61.49,87.56Z"/><path class="cls-8" d="M95.84,55.05,93,68.14,80.45,78.83l-19,8.73s-3.78-7.47-3.9-8.23v0c.11-.34,2.87-11.14,2.87-11.14l15.39,3.1,13-4.36Z"/><path class="cls-1" d="M41.73,23.22l2.53,14L49.66,56l3.1,3,2.64,6.66,5.06,2.53s-2.76,10.8-2.87,11.14a0,0,0,0,0,0,0V91.92L46.9,97.09,26.34,78.48,19.67,60.16s5.78-20.23,9.57-33.46L32,28l2.15-2.53,2.34-6.58Zm6.05,44.92-1.57-2.53-2.56-3.17.3,4.44Z"/><polygon class="cls-8" points="77.35 49.41 64.43 63.74 60.46 68.14 55.4 65.61 52.76 58.95 77.35 49.41"/><polygon class="cls-4" points="55.9 52.7 52.76 58.95 49.66 55.96 55.9 52.7"/><polygon class="cls-5" points="77.35 49.41 52.76 58.95 55.9 52.7 77.35 49.41"/><polygon class="cls-5" points="50.69 34.94 55.9 52.7 49.66 55.96 44.26 37.24 50.69 34.94"/><polygon class="cls-8" points="49.19 22.19 50.69 34.94 44.26 37.24 41.73 23.22 49.19 22.19"/><polygon class="cls-6" points="55.73 9.78 55.17 13.29 48.15 21.35 47.07 20.48 54.02 12.65 54.7 8.92 55.73 9.78"/><polygon class="cls-1" points="54.7 8.92 54.02 12.65 47.07 20.48 40.84 15.49 50.69 9.49 54.7 8.92"/><path class="cls-7" d="M21.36-.14,15.69,1.09C14,.63-22-15.21-22.6-15.45Z"/><path class="cls-6" d="M48.15,21.35l1,.84-7.46,1-5.24-4.36-.05-.05-11-9.45-.09,0L15.69,1.09,21.36-.14,40.83,15.49l6.24,5Z"/><polygon class="cls-6" points="25.43 9.46 26.72 22.35 24.19 24.37 22.51 10.05 25.34 9.38 25.43 9.46"/><polygon class="cls-8" points="29.24 26.7 24.19 24.37 26.72 22.35 34.15 25.44 32 27.97 29.24 26.7"/><path class="cls-7" d="M36.49,18.86l-2.34,6.58-7.43-3.09L25.43,9.46l7,6,4,3.32Z"/><path class="cls-4" d="M24.19,24.37l5,2.33c-3.79,13.23-9.57,33.46-9.57,33.46H.22L15.69,1.09l9.64,8.29-2.82.67Z"/><polygon class="cls-6" points="-1.92 60.48 -7.13 78.29 -10.35 78.44 -2.84 49.41 1.75 47.96 -1.92 60.48"/><polygon class="cls-8" points="-18.93 24.37 1.75 47.96 -2.84 49.41 -18.93 24.37"/><path class="cls-1" d="M-36.16,65.61l-.07-.24.07,0h-.07L-55.66-7l0-.11,33.09-8.35h0C-22-15.21,14,.63,15.69,1.09L.22,60.16l-2.14.32L1.75,48-18.93,24.37S-32.72,49.8-33.33,51l2.76,13.76Z"/></g><path class="cls-9" d="M77.23,25l4-3.65h0a.64.64,0,0,0,.2-.64c0-.14-.17-.38-.63-.38H77.75a1.37,1.37,0,0,0-.54.1,1.66,1.66,0,0,0-.34.25l-5.34,4.72a.7.7,0,0,1-.9,0l-5.34-4.72a1.72,1.72,0,0,0-.35-.25,1.3,1.3,0,0,0-.54-.1H61.33c-.45,0-.58.24-.62.38a.62.62,0,0,0,.2.65L66.06,26l4.55,4.28a.68.68,0,0,0,.47.19h0a.66.66,0,0,0,.46-.19Z"/><path class="cls-10" d="M77.23,36l-5.88-5.5h-.54L66.06,35l-5.16,4.7a.61.61,0,0,0-.19.64c0,.17.19.37.62.37H64.4a1.13,1.13,0,0,0,.88-.34l5.35-4.72a.67.67,0,0,1,.9,0l5.34,4.71a1.15,1.15,0,0,0,.34.25,1.21,1.21,0,0,0,.54.1h3.07c.46,0,.59-.23.63-.38a.63.63,0,0,0-.2-.63Z"/></svg>