<svg xmlns="http://www.w3.org/2000/svg" xmlns:xlink="http://www.w3.org/1999/xlink" viewBox="0 0 520.08 208.02"><defs><style>.cls-1{fill:#0e0c1f;}.cls-2{fill:url(#Degradado_sin_nombre_4);}.cls-3{fill:url(#Degradado_sin_nombre_4-2);}.cls-4{fill:url(#Degradado_sin_nombre_4-3);}.cls-5{fill:url(#Degradado_sin_nombre_4-4);}.cls-6{fill:url(#Degradado_sin_nombre_4-5);}.cls-7{fill:#2c465e;}.cls-8{fill:#d4e8ff;}.cls-9{fill:#e1eeff;}.cls-10{fill:#6b8092;}.cls-11{fill:#587185;}.cls-12{fill:#91a9bf;}.cls-13{fill:#34506b;}.cls-14{fill:#4b6278;}.cls-15{fill:#223649;}.cls-16{fill:#546c7f;}</style><linearGradient id="Degradado_sin_nombre_4" x1="409.92" y1="165.25" x2="409.36" y2="209.9" gradientUnits="userSpaceOnUse"><stop offset="0" stop-color="#b2bdc7"/><stop offset="1" stop-color="#72859e"/></linearGradient><linearGradient id="Degradado_sin_nombre_4-2" x1="453.64" y1="165.8" x2="453.08" y2="210.45" xlink:href="#Degradado_sin_nombre_4"/><linearGradient id="Degradado_sin_nombre_4-3" x1="497.95" y1="166.35" x2="497.39" y2="211" xlink:href="#Degradado_sin_nombre_4"/><linearGradient id="Degradado_sin_nombre_4-4" x1="346.28" y1="132.9" x2="346.28" y2="229" xlink:href="#Degradado_sin_nombre_4"/><linearGradient id="Degradado_sin_nombre_4-5" x1="346.28" y1="132.9" x2="346.28" y2="229" xlink:href="#Degradado_sin_nombre_4"/></defs><title>Recurso 9</title><g id="Capa_2" data-name="Capa 2"><g id="Capa_1-2" data-name="Capa 1"><path class="cls-1" d="M59.63,139.06q10.12,0,14.41,4t4.29,12.1v4.68q0,8.21-6.3,12.41,6.78,3.9,6.79,12.59v5.66a25.79,25.79,0,0,1-.89,7,12.23,12.23,0,0,1-8.26,8.68,25,25,0,0,1-8.27,1.18H3c-2,0-2.95-1-2.95-2.93V142c0-1.95,1-2.92,3-2.92Zm-44.58,28.4H55.4q4.92,0,6.69-1.46a5.27,5.27,0,0,0,1.77-4.3v-3.32a5.45,5.45,0,0,0-1.72-4.44c-1.15-.94-3-1.42-5.56-1.42H16.34a1.14,1.14,0,0,0-1.29,1.28Zm0,10.64v14.55a1.13,1.13,0,0,0,1.29,1.27H56.68c2.62,0,4.49-.48,5.61-1.42A5.65,5.65,0,0,0,64,188v-3.71a5.75,5.75,0,0,0-1.82-4.59c-1.22-1-3.46-1.56-6.74-1.56Z"/><path class="cls-1" d="M110.79,139.06A1.9,1.9,0,0,1,113,141.2v64a1.91,1.91,0,0,1-2.17,2.15H100.17c-1.51,0-2.26-.72-2.26-2.15v-64c0-1.43.75-2.14,2.26-2.14Z"/><path class="cls-1" d="M208.4,139.06c1.51,0,2.27.71,2.27,2.14v9.57A2,2,0,0,1,208.4,153H177.51v52.23a1.91,1.91,0,0,1-2.17,2.15H164.62a1.91,1.91,0,0,1-2.17-2.15V153h-30.9a2,2,0,0,1-2.26-2.24V141.2c0-1.43.75-2.14,2.26-2.14Z"/><path class="cls-1" d="M295,139.06c1.51,0,2.27.71,2.27,2.14v9.27c0,1.44-.76,2.15-2.27,2.15H252a26,26,0,0,0-6.34.64,8.61,8.61,0,0,0-4,2.14,8.15,8.15,0,0,0-2.11,4.1,29,29,0,0,0-.59,6.4v1H294.5a1.91,1.91,0,0,1,2.17,2.14v7.71a1.91,1.91,0,0,1-2.17,2.15H238.91v1.66a28.83,28.83,0,0,0,.59,6.39,8.14,8.14,0,0,0,2.11,4.11,8.53,8.53,0,0,0,4,2.14,26,26,0,0,0,6.34.64h43c1.51,0,2.27.71,2.27,2.15v9.27c0,1.43-.76,2.15-2.27,2.15H251.7A50.84,50.84,0,0,1,239,206a19.38,19.38,0,0,1-8.5-4.44,17.86,17.86,0,0,1-4.83-8,40.67,40.67,0,0,1-1.52-11.95V164.83a40.2,40.2,0,0,1,1.52-11.91,17.86,17.86,0,0,1,4.83-8,19.76,19.76,0,0,1,8.5-4.49,49.32,49.32,0,0,1,12.7-1.41Z"/><path class="cls-2" d="M415.92,155.18H391.43a1,1,0,0,0-1,1v34.63a1,1,0,0,0,1,1h5.35a1,1,0,0,0,1-1V163.68a1,1,0,0,1,1-1h17.08c3.93,0,6.28,2.25,6.28,6s-2.4,6.08-6.28,6.08H402.09a1,1,0,0,0-1,1V181a1,1,0,0,0,1,1h13.83c8.26,0,13.6-5.31,13.6-13.54S424.31,155.18,415.92,155.18Z"/><path class="cls-3" d="M466.67,182a1.43,1.43,0,0,1,.2-2.18c3.42-2.28,5.32-6.19,5.32-11.1,0-8.36-5.17-13.55-13.5-13.55H434.06a1.43,1.43,0,0,0-1.43,1.43v33.83a1.43,1.43,0,0,0,1.43,1.43h4.55a1.43,1.43,0,0,0,1.43-1.43V164.08a1.44,1.44,0,0,1,1.44-1.43h17.21c4.07,0,6.14,2.08,6.14,6.18,0,4.29-2.07,6.47-6.14,6.47h-14a1.43,1.43,0,0,0-1.43,1.43v3.87a1.43,1.43,0,0,0,1.43,1.43h11.54a1.43,1.43,0,0,1,1.06.47l8.11,8.91a1.44,1.44,0,0,0,1.06.46H473a1.43,1.43,0,0,0,1-2.44Z"/><path class="cls-4" d="M502.1,155.18h-8.62c-10.5,0-17.84,7.4-17.84,18s7.67,18.71,17.84,18.71h8.62c10.25,0,18-8,18-18.71S512.68,155.18,502.1,155.18Zm0,29.23h-8.62c-6,0-10.37-4.61-10.37-11s4.36-10.8,10.37-10.8h8.62c6.19,0,10.51,4.44,10.51,10.8S508.19,184.41,502.1,184.41Z"/><path class="cls-5" d="M367.3,154.41,381,141.91h0a2.15,2.15,0,0,0,.67-2.19c-.13-.48-.59-1.29-2.13-1.29H369.09a4.15,4.15,0,0,0-1.85.35,4.51,4.51,0,0,0-1.16.82l-19.8,17.49L326.5,139.62a4.7,4.7,0,0,0-1.18-.85,4.22,4.22,0,0,0-1.86-.35H313c-1.55,0-2,.81-2.14,1.29a2.15,2.15,0,0,0,.69,2.2l17.6,16,16.23,15.28h1.84Z"/><path class="cls-6" d="M367.31,192,347.2,173.22h-1.84L329.13,188.5l-17.62,16.05a2.13,2.13,0,0,0-.67,2.18c.17.59.67,1.29,2.14,1.29h10.48a4.3,4.3,0,0,0,1.85-.34,4.79,4.79,0,0,0,1.17-.83l19.8-17.49,19.77,17.47a4.53,4.53,0,0,0,1.19.84,4.15,4.15,0,0,0,1.85.35h10.49c1.54,0,2-.81,2.13-1.29a2.13,2.13,0,0,0-.67-2.18Z"/><polygon class="cls-7" points="327.22 57.82 328.77 60.11 324.32 61.03 327.22 57.82"/><polygon class="cls-8" points="350.15 51.47 345.04 60.11 343.28 58.27 350.15 51.47"/><polygon class="cls-9" points="343.28 58.27 345.04 60.11 335.56 63.3 334.97 61.03 343.28 58.27"/><polygon class="cls-10" points="334.97 61.03 335.56 63.3 324.32 61.03 328.77 60.11 334.97 61.03"/><path class="cls-11" d="M325.08,75.21l-2.86,3.19V69.21C322.31,69.76,325.08,75.21,325.08,75.21Z"/><path class="cls-12" d="M350.15,51.47,348.06,61l-9.15,7.81-13.83,6.37s-2.77-5.45-2.86-6v0c.09-.25,2.1-8.14,2.1-8.14l11.24,2.27L345,60.11Z"/><path class="cls-10" d="M310.65,28.24l1.84,10.23,3.94,13.67,2.27,2.18,1.93,4.87L324.32,61s-2,7.89-2.1,8.14V78.4l-7.8,3.77-15-13.59-4.86-13.37,7-24.43,2,.93,1.56-1.85,1.71-4.81ZM315.07,61l-1.15-1.84-1.87-2.32.22,3.24Z"/><polygon class="cls-12" points="336.65 47.36 327.22 57.82 324.32 61.03 320.63 59.19 318.7 54.33 336.65 47.36"/><polygon class="cls-7" points="320.99 49.76 318.7 54.33 316.44 52.14 320.99 49.76"/><polygon class="cls-8" points="336.65 47.36 318.7 54.33 320.99 49.76 336.65 47.36"/><polygon class="cls-8" points="317.19 36.79 320.99 49.76 316.44 52.14 312.49 38.47 317.19 36.79"/><polygon class="cls-12" points="316.1 27.48 317.19 36.79 312.49 38.47 310.65 28.24 316.1 27.48"/><polygon class="cls-9" points="320.87 18.42 320.46 20.99 315.34 26.88 314.54 26.24 319.62 20.52 320.11 17.8 320.87 18.42"/><polygon class="cls-10" points="320.11 17.8 319.62 20.52 314.54 26.24 309.99 22.59 317.19 18.22 320.11 17.8"/><path class="cls-11" d="M295.77,11.18l-4.13.9c-1.22-.33-27.55-11.9-28-12.08Z"/><path class="cls-9" d="M315.34,26.88l.75.61-5.44.75-3.83-3.19,0,0-8-6.9h-.06l-7-6,4.13-.9L310,22.59l4.55,3.65Z"/><polygon class="cls-9" points="298.74 18.19 299.69 27.61 297.84 29.08 296.61 18.62 298.68 18.13 298.74 18.19"/><polygon class="cls-12" points="301.53 30.78 297.84 29.08 299.69 27.61 305.11 29.86 303.55 31.7 301.53 30.78"/><path class="cls-11" d="M306.82,25.05l-1.71,4.81-5.42-2.25-.95-9.42,5.13,4.4L306.78,25Z"/><path class="cls-7" d="M297.84,29.08l3.69,1.7-7,24.43H280.34l11.3-43.13,7,6-2.07.49Z"/><path class="cls-11" d="M249.81,78.4l1.36.89s-3.82,6.26-4,6.38a40.61,40.61,0,0,1-4.44-2Z"/><polygon class="cls-7" points="244.78 72.58 249.81 78.4 242.69 83.65 238.29 75.21 244.78 72.58"/><polygon class="cls-13" points="258.64 74.48 251.17 79.29 249.81 78.4 257.19 73.78 258.64 74.48"/><polygon class="cls-14" points="259.93 67.37 260.79 69.82 258.64 74.48 257.19 73.78 259.93 67.37"/><path class="cls-15" d="M259.21,65.31l.72,2.06-2.74,6.41-7.38,4.62-5-5.82,6.39-5.37,2.61-8,4.08-.61Z"/><path class="cls-10" d="M272.4,81.3l1.4,9.18S263,90.14,262.67,90s2.13-8.73,2.13-8.73Z"/><polygon class="cls-9" points="279.33 85.89 273.8 90.47 272.4 81.3 273.91 80.86 279.33 85.89"/><polygon class="cls-10" points="274.97 68.44 273.91 80.86 272.4 81.3 272.63 68.56 274.97 68.44"/><polygon class="cls-9" points="278.78 55.44 274.97 68.44 272.63 68.56 278.11 47.36 281.46 46.3 278.78 55.44"/><polygon class="cls-12" points="266.36 29.08 281.46 46.3 278.11 47.36 266.36 29.08"/><path class="cls-11" d="M257.86,58.58l-2-10c.45-.9,10.51-19.46,10.51-19.46l11.75,18.28-5.48,21.2L272.4,81.3h-7.6l-4-11.48-.86-2.45-.72-2.06Z"/><path class="cls-10" d="M253.78,59.19l-.05-.18h0L239.54,6.18l0-.08L263.68,0h0c.41.18,26.74,11.75,28,12.08l-11.3,43.13-1.56.23,2.68-9.14-15.1-17.22S256.3,47.64,255.85,48.54l2,10Z"/><polygon class="cls-14" points="239.54 6.18 253.73 59 225.92 61.96 206.19 56.68 210.18 7.6 239.54 6.18"/><polygon class="cls-16" points="253.73 59 253.73 59.01 224.67 66.99 225.92 61.96 253.73 59"/><polygon class="cls-15" points="225.92 61.96 224.67 66.99 206.19 56.68 225.92 61.96"/><polygon class="cls-10" points="220.89 81.99 215.97 86.61 209.15 89.74 215.41 83.47 220.89 81.99"/><polygon class="cls-7" points="215.41 83.47 209.15 89.74 206.97 85.49 212.17 81.99 215.41 83.47"/><polygon class="cls-11" points="220.89 81.99 215.41 83.47 212.17 81.99 214.35 80.68 220.89 81.99"/><polygon class="cls-13" points="208.14 72.4 214.35 80.68 212.17 81.99 206.13 73.61 208.14 72.4"/><polygon class="cls-14" points="206.19 56.68 208.14 72.4 206.13 73.61 203.83 58.4 206.19 56.68"/><polygon class="cls-15" points="206.13 73.61 212.17 81.99 206.97 85.49 196.24 79.9 192.12 67.03 192.05 66.94 203.83 58.4 206.13 73.61"/><path class="cls-11" d="M179.12,88.62l1.29,6.88s-10.49-1.76-10.49-1.85l2.49-6Z"/><polygon class="cls-10" points="181.64 87.7 185.08 93.82 180.41 95.5 179.12 88.62 181.64 87.7"/><polygon class="cls-9" points="187.26 70.42 181.64 87.7 179.12 88.62 182.9 70.36 187.26 70.42"/><polygon class="cls-12" points="206.19 56.68 203.83 58.4 192.05 66.94 187.26 70.42 182.9 70.36 200.43 54.15 206.19 56.68"/><polygon class="cls-11" points="210.18 7.6 206.19 56.68 200.43 54.15 210.18 7.6"/><polygon class="cls-13" points="210.18 7.6 200.43 54.15 182.9 70.36 179.12 88.62 172.41 87.7 169.92 73.61 174.45 60.57 179.12 22.41 210.18 7.6"/></g></g></svg>