<svg xmlns="http://www.w3.org/2000/svg" viewBox="0 0 100.9 86.56"><defs><style>.cls-1{fill:#5684be;}</style></defs><title>Recurso 2</title><g id="Capa_2" data-name="Capa 2"><g id="Capa_1-2" data-name="Capa 1"><path class="cls-1" d="M57.75,38.44a34,34,0,0,0-4.3-1.31c-1.25-.31-2.22-.59-2.92-.83a4.8,4.8,0,0,1-1.72-1,2.12,2.12,0,0,1-.69-1.64,2.71,2.71,0,0,1,1.17-2.3,5.11,5.11,0,0,1,3.12-.87,7.78,7.78,0,0,1,2.86.47,16.26,16.26,0,0,1,2.65,1.41,4.6,4.6,0,0,0,.95.46,2.21,2.21,0,0,0,.74.11,1.62,1.62,0,0,0,1.27-.68,2.42,2.42,0,0,0,.56-1.59,2.53,2.53,0,0,0-.23-1.11,2.32,2.32,0,0,0-.77-.83,13.61,13.61,0,0,0-6.09-2.45v-2a2,2,0,0,0-2.16-2.16,2.13,2.13,0,0,0-1.55.6A2,2,0,0,0,50,24.31v2.05A9.79,9.79,0,0,0,44.61,29a6.85,6.85,0,0,0-2.07,5,6,6,0,0,0,1.24,4,7.31,7.31,0,0,0,3,2.16,38.09,38.09,0,0,0,4.4,1.37c1.22.34,2.16.61,2.81.83a4.59,4.59,0,0,1,1.63.9,1.83,1.83,0,0,1,.67,1.47A2.65,2.65,0,0,1,55.11,47a5.75,5.75,0,0,1-3.32.81,10.73,10.73,0,0,1-3.11-.45A14.33,14.33,0,0,1,45.53,46a3.56,3.56,0,0,0-1.69-.58,1.62,1.62,0,0,0-1.28.69A2.42,2.42,0,0,0,42,47.64a2.37,2.37,0,0,0,.24,1.13,2.09,2.09,0,0,0,.81.81,12.33,12.33,0,0,0,3.26,1.66,16,16,0,0,0,3.83.83V54a2.09,2.09,0,0,0,.61,1.57,2.15,2.15,0,0,0,1.55.59A2,2,0,0,0,54.46,54V52a9.66,9.66,0,0,0,5.38-2.57,6.71,6.71,0,0,0,2-4.92,5.94,5.94,0,0,0-1.21-3.91A7.12,7.12,0,0,0,57.75,38.44Z"/><path class="cls-1" d="M92.41,5.16a8.48,8.48,0,0,0-8.23,10.6l-7.53,5.29a30.61,30.61,0,0,0-47.24-2.68L16.8,10.27A8.74,8.74,0,0,0,17,8.49a8.52,8.52,0,1,0-3.44,6.82l12.22,7.85A30.55,30.55,0,0,0,23,49.23l-5,3.06A8.49,8.49,0,1,0,21.25,59a8.32,8.32,0,0,0-.15-1.59l4.41-2.69a30.64,30.64,0,0,0,39.68,12.1l5.34,6.84a8.49,8.49,0,1,0,7.25-4.08,8.35,8.35,0,0,0-2.52.38l-4.92-6.29a30.61,30.61,0,0,0,9.38-37.43l7.91-5.55A8.49,8.49,0,1,0,92.41,5.16ZM51.92,62.83A23.67,23.67,0,1,1,75.59,39.16,23.7,23.7,0,0,1,51.92,62.83Z"/></g></g></svg>