<svg xmlns="http://www.w3.org/2000/svg" xmlns:xlink="http://www.w3.org/1999/xlink" viewBox="0 0 98.31 89.32"><defs><style>.cls-1{fill:none;}.cls-2{clip-path:url(#clip-path);}.cls-3{fill:#5684be;}</style><clipPath id="clip-path" transform="translate(11.23 5.5)"><circle class="cls-1" cx="39.16" cy="39.16" r="39.16"/></clipPath></defs><title>Recurso 1</title><g id="Capa_2" data-name="Capa 2"><g id="Capa_1-2" data-name="Capa 1"><g class="cls-2"><path class="cls-3" d="M39.16,83.82A44.66,44.66,0,1,1,83.82,39.16,44.7,44.7,0,0,1,39.16,83.82Zm0-78.32A33.66,33.66,0,1,0,72.82,39.16,33.7,33.7,0,0,0,39.16,5.5Z" transform="translate(11.23 5.5)"/><path class="cls-3" d="M21.93,5.42c-3.48,1.68-4.66,6.32-3.63,10S22,22.19,24.67,25s5.42,5.72,6.67,9.37c1.47,4.29-4.32,9.8-3.23,13.25,2.17,6.88,8,6.05,12.53,11.62C42,60.92,46.11,70,48.28,70.15c3.3.19,5.33-3.47,6.53-6.56,1.51-3.94,3-8,3.17-12.18s-1.46-8.72-5-11c-4.12-2.68-15.63-1.89-18-6.22-1-1.93-4.34-5-2.18-7.26,1.6-1.66,8.52-2.49,9.36-3.89q2.27-3.8,4.71-7.49c2.55-3.87,5.38-8.3,4.29-12.81A59.63,59.63,0,0,0,18-3.31" transform="translate(11.23 5.5)"/><path class="cls-3" d="M63,33.36a23,23,0,0,0,4.46,4c2.61,1.61,6.07,2.33,7.52,5,1-1.68,3.43-1.59,5.35-1.2s4.24.71,5.51-.77c3.34-3.92-1.18-14.55-3.29-18.24-2.49-4.33-6.56-8.4-11.41-10-4.2-1.36-8.3-.61-10.82,3.23C56.24,21.68,58.33,28.34,63,33.36Z" transform="translate(11.23 5.5)"/><path class="cls-3" d="M1.64,18.66C-.12,20.92,1.46,24.39,3.81,26s5.31,2.21,7.77,3.68,4.49,4.55,3.23,7.13c-.81,1.64-2.69,2.52-3.59,4.11-1.1,2-.47,4.38,0,6.57s.56,4.86-1.18,6.28l-2.55-.91A21.83,21.83,0,0,0,10,66.37,24.86,24.86,0,0,1-8.39,53.7a24.84,24.84,0,0,1-.38-22.33" transform="translate(11.23 5.5)"/></g></g></g></svg>