<svg id="Capa_1" data-name="Capa 1" xmlns="http://www.w3.org/2000/svg" viewBox="0 0 200 200"><defs><style>.cls-1{fill:#5684be;}.cls-2{fill:none;stroke:#5684be;stroke-miterlimit:10;stroke-width:5px;}</style></defs><title>leverage</title><g id="Grupo_916" data-name="Grupo 916"><path id="Trazado_1786" data-name="Trazado 1786" class="cls-1" d="M181,81.52h-5.63a2.19,2.19,0,0,1-2-1.35,2.07,2.07,0,0,1,.45-2.32l4-4a3.08,3.08,0,0,0,0-4.35l-5-5a3.08,3.08,0,0,0-4.35,0l-4,4a2.09,2.09,0,0,1-3,.07,2.05,2.05,0,0,1-.68-1.57V61.32a3,3,0,0,0-3-3.08h-7.21a3,3,0,0,0-3.08,3V67a2.17,2.17,0,0,1-2.17,2.17,1.87,1.87,0,0,1-1.5-.67l-4-4a3.09,3.09,0,0,0-4.36,0l-5,5a3.08,3.08,0,0,0,0,4.35l4,4a2.09,2.09,0,0,1,.46,2.32,2.22,2.22,0,0,1-2,1.36h-5.63a3,3,0,0,0-3.08,3v7.2a3.06,3.06,0,0,0,3,3.08h5.69a2.22,2.22,0,0,1,2,1.35,2.06,2.06,0,0,1-.46,2.32l-4,4a3.09,3.09,0,0,0,0,4.36l5,5a3.09,3.09,0,0,0,4.36,0l4-4a2.13,2.13,0,0,1,3.68,1.5V115a3,3,0,0,0,3,3.08h7.2a3,3,0,0,0,3.08-3v-5.69a2.17,2.17,0,0,1,2.18-2.17,1.89,1.89,0,0,1,1.5.67l4,4a3.08,3.08,0,0,0,4.35,0l5-5a3.08,3.08,0,0,0,0-4.35l-4-4a2.07,2.07,0,0,1-.45-2.32,2.19,2.19,0,0,1,2-1.35H181a3,3,0,0,0,3.08-3V84.6A3.09,3.09,0,0,0,181,81.52Zm-19.15,6.69a7.81,7.81,0,1,1-7.81-7.81,7.81,7.81,0,0,1,7.81,7.81Z"/><path id="Trazado_450" data-name="Trazado 450" class="cls-1" d="M49.61,63.5a35.38,35.38,0,0,0-4.81-1.43c-1.35-.3-2.48-.67-3.23-.9A4.38,4.38,0,0,1,39.69,60a2.1,2.1,0,0,1-.75-1.8,2.88,2.88,0,0,1,1.35-2.55,5.68,5.68,0,0,1,3.46-1,9.6,9.6,0,0,1,3.23.53,13.39,13.39,0,0,1,2.93,1.58,7.59,7.59,0,0,0,1.12.52,1.29,1.29,0,0,0,.75.08,1.7,1.7,0,0,0,1.43-.76,2.69,2.69,0,0,0,.68-1.8,3.09,3.09,0,0,0-.23-1.2,2.59,2.59,0,0,0-.9-.9,14.29,14.29,0,0,0-6.83-2.7V47.8a2.72,2.72,0,0,0-.68-1.8,2.54,2.54,0,0,0-1.8-.67A2.31,2.31,0,0,0,41.8,46a2.56,2.56,0,0,0-.68,1.8v2.33a11.32,11.32,0,0,0-6,3,7.71,7.71,0,0,0-2.33,5.56,7.11,7.11,0,0,0,1.36,4.5,7.87,7.87,0,0,0,3.38,2.48c1.57.6,3.23,1.13,4.88,1.58a29,29,0,0,1,3.15.9,5.16,5.16,0,0,1,1.8,1,2.4,2.4,0,0,1,.75,1.66,2.85,2.85,0,0,1-1.35,2.55,7.05,7.05,0,0,1-3.68.9,9.19,9.19,0,0,1-3.45-.52c-1.23-.47-2.43-1-3.61-1.58a4.31,4.31,0,0,0-1.87-.68,1.72,1.72,0,0,0-1.43.75A2.71,2.71,0,0,0,32,74a3.14,3.14,0,0,0,.23,1.21,2.59,2.59,0,0,0,.9.9A14.19,14.19,0,0,0,36.84,78a19.53,19.53,0,0,0,4.28.9V81a2.67,2.67,0,0,0,.68,1.8,2.31,2.31,0,0,0,1.65.68,2.72,2.72,0,0,0,1.8-.68,2.61,2.61,0,0,0,.68-1.8V78.68a10.38,10.38,0,0,0,6-2.93,7.28,7.28,0,0,0,2.26-5.48,6.59,6.59,0,0,0-1.36-4.36A7.33,7.33,0,0,0,49.61,63.5Z"/><path id="Trazado_1787" data-name="Trazado 1787" class="cls-1" d="M199.42,138.22a3.75,3.75,0,0,1-3.68,3,2.39,2.39,0,0,1-.75-.07L111.63,124a12.08,12.08,0,0,1-7.88,5.86L116,151.14a3,3,0,0,1-2.63,4.58h.38a2.7,2.7,0,0,1,2.7,2.68v2.06a2.74,2.74,0,0,1-2.7,2.77H88.43a2.77,2.77,0,0,1-2.78-2.76h0v-2a2.71,2.71,0,0,1,2.72-2.71h.44a3,3,0,0,1-2.63-4.58l12.24-21.25a12.05,12.05,0,0,1-9.31-10.51L3.5,102A3.8,3.8,0,0,1,.57,97.52a3.71,3.71,0,0,1,4.35-3l.08,0,85.76,17.57a12,12,0,0,1,22.3,4.58l83.43,17a3.74,3.74,0,0,1,2.93,4.42Z"/><circle id="Elipse_15" data-name="Elipse 15" class="cls-2" cx="43.3" cy="64.55" r="27.79"/><path id="Trazado_450-2" data-name="Trazado 450" class="cls-1" d="M49.61,63.5a35.38,35.38,0,0,0-4.81-1.43c-1.35-.3-2.48-.67-3.23-.9A4.38,4.38,0,0,1,39.69,60a2.1,2.1,0,0,1-.75-1.8,2.88,2.88,0,0,1,1.35-2.55,5.68,5.68,0,0,1,3.46-1,9.6,9.6,0,0,1,3.23.53,13.39,13.39,0,0,1,2.93,1.58,7.59,7.59,0,0,0,1.12.52,1.29,1.29,0,0,0,.75.08,1.7,1.7,0,0,0,1.43-.76,2.69,2.69,0,0,0,.68-1.8,3.09,3.09,0,0,0-.23-1.2,2.59,2.59,0,0,0-.9-.9,14.29,14.29,0,0,0-6.83-2.7V47.8a2.72,2.72,0,0,0-.68-1.8,2.54,2.54,0,0,0-1.8-.67A2.31,2.31,0,0,0,41.8,46a2.56,2.56,0,0,0-.68,1.8v2.33a11.32,11.32,0,0,0-6,3,7.71,7.71,0,0,0-2.33,5.56,7.11,7.11,0,0,0,1.36,4.5,7.87,7.87,0,0,0,3.38,2.48c1.57.6,3.23,1.13,4.88,1.58a29,29,0,0,1,3.15.9,5.16,5.16,0,0,1,1.8,1,2.4,2.4,0,0,1,.75,1.66,2.85,2.85,0,0,1-1.35,2.55,7.05,7.05,0,0,1-3.68.9,9.19,9.19,0,0,1-3.45-.52c-1.23-.47-2.43-1-3.61-1.58a4.31,4.31,0,0,0-1.87-.68,1.72,1.72,0,0,0-1.43.75A2.71,2.71,0,0,0,32,74a3.14,3.14,0,0,0,.23,1.21,2.59,2.59,0,0,0,.9.9A14.19,14.19,0,0,0,36.84,78a19.53,19.53,0,0,0,4.28.9V81a2.67,2.67,0,0,0,.68,1.8,2.31,2.31,0,0,0,1.65.68,2.72,2.72,0,0,0,1.8-.68,2.61,2.61,0,0,0,.68-1.8V78.68a10.38,10.38,0,0,0,6-2.93,7.28,7.28,0,0,0,2.26-5.48,6.59,6.59,0,0,0-1.36-4.36A7.33,7.33,0,0,0,49.61,63.5Z"/></g></svg>