<svg xmlns="http://www.w3.org/2000/svg" xmlns:xlink="http://www.w3.org/1999/xlink" viewBox="0 0 520.08 69.59"><defs><style>.cls-1{fill:#0e0c1f;}.cls-2{fill:url(#Degradado_sin_nombre_4);}.cls-3{fill:url(#Degradado_sin_nombre_4-2);}.cls-4{fill:url(#Degradado_sin_nombre_4-3);}.cls-5{fill:url(#Degradado_sin_nombre_4-4);}.cls-6{fill:url(#Degradado_sin_nombre_4-5);}</style><linearGradient id="Degradado_sin_nombre_4" x1="409.92" y1="26.83" x2="409.36" y2="71.48" gradientUnits="userSpaceOnUse"><stop offset="0" stop-color="#b2bdc7"/><stop offset="1" stop-color="#72859e"/></linearGradient><linearGradient id="Degradado_sin_nombre_4-2" x1="453.64" y1="27.37" x2="453.08" y2="72.02" xlink:href="#Degradado_sin_nombre_4"/><linearGradient id="Degradado_sin_nombre_4-3" x1="497.95" y1="27.93" x2="497.39" y2="72.58" xlink:href="#Degradado_sin_nombre_4"/><linearGradient id="Degradado_sin_nombre_4-4" x1="346.28" y1="-5.53" x2="346.28" y2="90.58" xlink:href="#Degradado_sin_nombre_4"/><linearGradient id="Degradado_sin_nombre_4-5" x1="346.28" y1="-5.53" x2="346.28" y2="90.58" xlink:href="#Degradado_sin_nombre_4"/></defs><title>Recurso 8</title><g id="Capa_2" data-name="Capa 2"><g id="Capa_1-2" data-name="Capa 1"><path class="cls-1" d="M59.63.63q10.12,0,14.41,4t4.29,12.11v4.68q0,8.2-6.3,12.4,6.78,3.9,6.78,12.59v5.66a25.76,25.76,0,0,1-.88,7,12.27,12.27,0,0,1-8.26,8.69A25.29,25.29,0,0,1,61.4,69H3C1,69,0,68,0,66V3.56C0,1.61,1,.63,3,.63ZM15.05,29H55.4c3.28,0,5.51-.48,6.69-1.46a5.23,5.23,0,0,0,1.77-4.29V20a5.43,5.43,0,0,0-1.72-4.44q-1.72-1.42-5.56-1.42H16.34a1.13,1.13,0,0,0-1.29,1.27Zm0,10.65V54.22a1.13,1.13,0,0,0,1.29,1.27H56.68q3.93,0,5.61-1.42T64,49.53V45.82a5.71,5.71,0,0,0-1.82-4.58c-1.22-1-3.46-1.56-6.74-1.56Z"/><path class="cls-1" d="M110.79.63A1.91,1.91,0,0,1,113,2.78v64A1.91,1.91,0,0,1,110.79,69H100.17c-1.51,0-2.26-.71-2.26-2.15v-64c0-1.43.75-2.15,2.26-2.15Z"/><path class="cls-1" d="M208.4.63c1.51,0,2.27.72,2.27,2.15v9.56a2,2,0,0,1-2.27,2.25H177.51V66.81A1.91,1.91,0,0,1,175.34,69H164.62a1.91,1.91,0,0,1-2.17-2.15V14.59h-30.9a2,2,0,0,1-2.26-2.25V2.78c0-1.43.75-2.15,2.26-2.15Z"/><path class="cls-1" d="M295,.63c1.51,0,2.27.72,2.27,2.15v9.27c0,1.43-.76,2.15-2.27,2.15H252a26.58,26.58,0,0,0-6.34.63,8.63,8.63,0,0,0-4,2.15,8.15,8.15,0,0,0-2.11,4.1,29,29,0,0,0-.59,6.39v1H294.5a1.91,1.91,0,0,1,2.17,2.15v7.71a1.91,1.91,0,0,1-2.17,2.15H238.91v1.66a28.83,28.83,0,0,0,.59,6.39,8.11,8.11,0,0,0,2.11,4.1,8.54,8.54,0,0,0,4,2.15,26.58,26.58,0,0,0,6.34.63h43c1.51,0,2.27.72,2.27,2.15v9.27c0,1.44-.76,2.15-2.27,2.15H251.7A50.89,50.89,0,0,1,239,67.6a19.39,19.39,0,0,1-8.5-4.45,17.83,17.83,0,0,1-4.83-8,40.75,40.75,0,0,1-1.52-12V26.4a40.25,40.25,0,0,1,1.52-11.91,17.88,17.88,0,0,1,4.83-7.95A19.88,19.88,0,0,1,239,2,49.32,49.32,0,0,1,251.7.63Z"/><path class="cls-2" d="M415.92,16.76H391.43a1,1,0,0,0-1,1V52.42a1,1,0,0,0,1,1h5.35a1,1,0,0,0,1-1V25.25a1,1,0,0,1,1-1h17.08c3.93,0,6.28,2.26,6.28,6s-2.4,6.08-6.28,6.08H402.09a1,1,0,0,0-1,1v5.21a1,1,0,0,0,1,1h13.83c8.26,0,13.6-5.32,13.6-13.55S424.31,16.76,415.92,16.76Z"/><path class="cls-3" d="M466.67,43.59a1.43,1.43,0,0,1,.2-2.18c3.42-2.28,5.32-6.2,5.32-11.11,0-8.35-5.17-13.54-13.5-13.54H434.06a1.43,1.43,0,0,0-1.43,1.43V52a1.43,1.43,0,0,0,1.43,1.43h4.55A1.43,1.43,0,0,0,440,52V25.65a1.44,1.44,0,0,1,1.44-1.43h17.21c4.07,0,6.14,2.08,6.14,6.18,0,4.3-2.07,6.47-6.14,6.47h-14a1.44,1.44,0,0,0-1.43,1.44v3.87a1.43,1.43,0,0,0,1.43,1.43h11.54a1.43,1.43,0,0,1,1.06.47l8.11,8.9a1.42,1.42,0,0,0,1.06.47H473A1.43,1.43,0,0,0,474,51Z"/><path class="cls-4" d="M502.1,16.76h-8.62c-10.5,0-17.84,7.39-17.84,18s7.67,18.71,17.84,18.71h8.62c10.25,0,18-8.05,18-18.71S512.68,16.76,502.1,16.76Zm0,29.22h-8.62c-6,0-10.37-4.6-10.37-10.95s4.36-10.81,10.37-10.81h8.62c6.19,0,10.51,4.45,10.51,10.81S508.19,46,502.1,46Z"/><path class="cls-5" d="M367.3,16,381,3.49l0,0a2.13,2.13,0,0,0,.67-2.18C381.58.81,381.12,0,379.58,0H369.09a4.16,4.16,0,0,0-1.85.34,4.32,4.32,0,0,0-1.16.83l-19.8,17.48L326.5,1.19a4.7,4.7,0,0,0-1.18-.85A4.23,4.23,0,0,0,323.46,0H313c-1.55,0-2,.81-2.14,1.29a2.15,2.15,0,0,0,.69,2.2l17.6,16L345.36,34.8h1.84Z"/><path class="cls-6" d="M367.31,53.61,347.2,34.8h-1.84L329.13,50.07,311.51,66.12a2.13,2.13,0,0,0-.67,2.18c.17.59.67,1.29,2.14,1.29h10.48a4.16,4.16,0,0,0,1.85-.34,4.53,4.53,0,0,0,1.17-.83l19.8-17.48L366.05,68.4a4.57,4.57,0,0,0,1.19.85,4.16,4.16,0,0,0,1.85.34h10.49c1.54,0,2-.81,2.13-1.29a2.14,2.14,0,0,0-.67-2.18Z"/></g></g></svg>