<svg xmlns="http://www.w3.org/2000/svg" viewBox="0 0 255.37 35.4"><defs><style>.cls-1{fill:#fff;}.cls-2{fill:#5e5e5e;}.cls-3{fill:#929292;}.cls-4{fill:#858585;}.cls-5{fill:#bfbfbf;}.cls-6{fill:#6b6b6b;}.cls-7{fill:#787878;}.cls-8{fill:#494949;}.cls-9{fill:#7f7f7f;}</style></defs><title>Recurso 6</title><g id="Capa_2" data-name="Capa 2"><g id="Capa_1-2" data-name="Capa 1"><path class="cls-1" d="M219.35,13.35h-8.47a.36.36,0,0,0-.36.36v12a.36.36,0,0,0,.36.36h1.85a.36.36,0,0,0,.36-.36V16.29a.36.36,0,0,1,.36-.36h5.9A2,2,0,0,1,221.52,18a2,2,0,0,1-2.17,2.1h-4.78a.36.36,0,0,0-.36.36v1.8a.36.36,0,0,0,.36.35h4.78a4.39,4.39,0,0,0,4.7-4.68C224.05,15.11,222.25,13.35,219.35,13.35Z"/><path class="cls-1" d="M236.9,22.62a.5.5,0,0,1,.07-.75A4.41,4.41,0,0,0,238.81,18a4.34,4.34,0,0,0-4.67-4.68h-8.52a.49.49,0,0,0-.49.49v11.7a.5.5,0,0,0,.49.5h1.58a.5.5,0,0,0,.49-.5V16.42a.49.49,0,0,1,.5-.49h5.95a1.89,1.89,0,0,1,2.12,2.14c0,1.48-.71,2.23-2.12,2.23h-4.83a.5.5,0,0,0-.49.5v1.34a.49.49,0,0,0,.49.49h4a.51.51,0,0,1,.37.16l2.8,3.08a.5.5,0,0,0,.37.17h2.25a.5.5,0,0,0,.36-.85Z"/><path class="cls-1" d="M249.15,13.35h-3A5.92,5.92,0,0,0,240,19.57,6.19,6.19,0,0,0,246.17,26h3a6.22,6.22,0,0,0,6.22-6.47A6,6,0,0,0,249.15,13.35Zm0,10.1h-3a3.57,3.57,0,0,1-3.59-3.78,3.55,3.55,0,0,1,3.59-3.74h3a3.53,3.53,0,0,1,3.64,3.74A3.59,3.59,0,0,1,249.15,23.45Z"/><path class="cls-1" d="M95.23,7.88q3.51,0,5,1.38a5.46,5.46,0,0,1,1.49,4.19v1.62a4.8,4.8,0,0,1-2.18,4.28,4.66,4.66,0,0,1,2.34,4.36v2a9.08,9.08,0,0,1-.3,2.43,4.41,4.41,0,0,1-1,1.84A4.48,4.48,0,0,1,98.7,31.1a8.7,8.7,0,0,1-2.86.41H75.63a.9.9,0,0,1-1-1V8.89a.9.9,0,0,1,1-1ZM79.82,17.7h14a3.77,3.77,0,0,0,2.31-.51,1.79,1.79,0,0,0,.61-1.48V14.56A1.87,1.87,0,0,0,96.1,13a3,3,0,0,0-1.92-.49H80.26a.38.38,0,0,0-.44.43Zm0,3.68v5a.39.39,0,0,0,.44.44H94.21a3.06,3.06,0,0,0,1.94-.49,2,2,0,0,0,.58-1.57V23.51a2,2,0,0,0-.63-1.59,3.7,3.7,0,0,0-2.33-.54Z"/><path class="cls-1" d="M112.92,7.88a.66.66,0,0,1,.75.74V30.76a.66.66,0,0,1-.75.75h-3.67q-.78,0-.78-.75V8.62c0-.49.26-.74.78-.74Z"/><path class="cls-1" d="M146.67,7.88c.53,0,.79.25.79.74v3.31c0,.52-.26.77-.79.77H136V30.76a.66.66,0,0,1-.75.75h-3.71a.66.66,0,0,1-.75-.75V12.7H120.1a.68.68,0,0,1-.78-.77V8.62c0-.49.26-.74.78-.74Z"/><path class="cls-1" d="M176.62,7.88c.52,0,.78.25.78.74v3.21c0,.49-.26.74-.78.74H161.75a9,9,0,0,0-2.2.22,2.87,2.87,0,0,0-1.39.74,2.79,2.79,0,0,0-.73,1.42,9.86,9.86,0,0,0-.21,2.21v.34h19.23a.65.65,0,0,1,.74.74v2.67a.66.66,0,0,1-.74.74H157.22v.57a9.79,9.79,0,0,0,.21,2.21,2.79,2.79,0,0,0,.73,1.42,2.87,2.87,0,0,0,1.39.74,9,9,0,0,0,2.2.22h14.87q.78,0,.78.75v3.2q0,.75-.78.75h-15a17.25,17.25,0,0,1-4.39-.48,6.64,6.64,0,0,1-2.95-1.53,6.17,6.17,0,0,1-1.66-2.77,13.84,13.84,0,0,1-.53-4.14v-5.8a13.7,13.7,0,0,1,.53-4.12,6.21,6.21,0,0,1,1.66-2.75,6.76,6.76,0,0,1,2.95-1.55,16.77,16.77,0,0,1,4.39-.49Z"/><path class="cls-1" d="M202.54,13.19l4.74-4.32h0a.73.73,0,0,0,.23-.75c0-.17-.2-.45-.74-.45h-3.62a1.43,1.43,0,0,0-.64.12,1.6,1.6,0,0,0-.4.28l-6.85,6-6.84-6a1.61,1.61,0,0,0-.41-.29,1.43,1.43,0,0,0-.64-.12h-3.63c-.53,0-.69.28-.73.45a.72.72,0,0,0,.24.76l6.08,5.54L195,19.69h.64Z"/><path class="cls-1" d="M202.54,26.2l-6.95-6.51H195L189.34,25l-6.09,5.55a.72.72,0,0,0-.23.76c0,.2.23.44.73.44h3.63a1.44,1.44,0,0,0,.64-.11,1.64,1.64,0,0,0,.4-.29l6.85-6.05,6.84,6a1.66,1.66,0,0,0,.41.3,1.44,1.44,0,0,0,.64.11h3.62c.54,0,.7-.28.74-.44a.74.74,0,0,0-.23-.76Z"/><polygon class="cls-2" points="58.31 21.43 58.88 22.28 57.23 22.62 58.31 21.43"/><polygon class="cls-1" points="66.81 19.08 64.91 22.28 64.26 21.6 66.81 19.08"/><polygon class="cls-1" points="64.26 21.6 64.91 22.28 61.4 23.46 61.18 22.62 64.26 21.6"/><polygon class="cls-3" points="61.18 22.62 61.4 23.46 57.23 22.62 58.88 22.28 61.18 22.62"/><path class="cls-4" d="M57.51,27.88l-1.06,1.18V25.65C56.49,25.86,57.51,27.88,57.51,27.88Z"/><path class="cls-5" d="M66.81,19.08,66,22.62l-3.39,2.9-5.13,2.36s-1-2-1.06-2.23h0c0-.09.78-3,.78-3l4.17.84,3.51-1.18Z"/><path class="cls-3" d="M52.16,10.47l.69,3.79,1.46,5.07.84.81.71,1.8,1.37.68s-.74,2.93-.78,3h0v3.41l-2.89,1.4-5.56-5-1.81-5s1.57-5.47,2.59-9l.75.34.58-.68.63-1.78ZM53.8,22.62l-.42-.68-.7-.86.08,1.2Z"/><polygon class="cls-5" points="61.8 17.56 58.31 21.43 57.23 22.62 55.86 21.94 55.15 20.14 61.8 17.56"/><polygon class="cls-2" points="56 18.45 55.15 20.14 54.31 19.33 56 18.45"/><polygon class="cls-1" points="61.8 17.56 55.15 20.14 56 18.45 61.8 17.56"/><polygon class="cls-1" points="54.59 13.64 56 18.45 54.31 19.33 52.85 14.26 54.59 13.64"/><polygon class="cls-5" points="54.18 10.19 54.59 13.64 52.85 14.26 52.16 10.47 54.18 10.19"/><polygon class="cls-1" points="55.95 6.83 55.8 7.78 53.9 9.96 53.61 9.73 55.49 7.61 55.67 6.6 55.95 6.83"/><polygon class="cls-3" points="55.67 6.6 55.49 7.61 53.61 9.73 51.92 8.38 54.59 6.75 55.67 6.6"/><path class="cls-4" d="M46.65,4.15l-1.53.33C44.66,4.35,34.91.07,34.76,0Z"/><path class="cls-1" d="M53.9,10l.28.23-2,.28L50.74,9.29v0l-3-2.55h0L45.12,4.48l1.53-.33,5.27,4.22,1.69,1.36Z"/><polygon class="cls-1" points="47.75 6.74 48.1 10.23 47.42 10.78 46.96 6.9 47.73 6.72 47.75 6.74"/><polygon class="cls-5" points="48.78 11.41 47.42 10.78 48.1 10.23 50.11 11.07 49.53 11.75 48.78 11.41"/><path class="cls-4" d="M50.74,9.29l-.63,1.78-2-.84-.35-3.49,1.9,1.63,1.08.9Z"/><path class="cls-2" d="M47.42,10.78l1.36.63c-1,3.58-2.59,9.05-2.59,9.05H40.93l4.19-16,2.61,2.24L47,6.9Z"/><path class="cls-4" d="M29.61,29.06l.51.33s-1.42,2.32-1.5,2.37A15.76,15.76,0,0,1,27,31Z"/><polygon class="cls-2" points="27.75 26.9 29.61 29.06 26.97 31.01 25.34 27.88 27.75 26.9"/><polygon class="cls-6" points="32.89 27.61 30.12 29.39 29.61 29.06 32.35 27.35 32.89 27.61"/><polygon class="cls-7" points="33.36 24.97 33.68 25.88 32.89 27.61 32.35 27.35 33.36 24.97"/><path class="cls-8" d="M33.1,24.21l.26.76-1,2.38-2.74,1.71L27.75,26.9l2.37-2,1-3,1.52-.23Z"/><path class="cls-3" d="M38,30.14l.51,3.4s-4-.13-4.12-.17a29.26,29.26,0,0,1,.79-3.23Z"/><polygon class="cls-1" points="40.56 31.84 38.5 33.54 37.99 30.14 38.55 29.97 40.56 31.84"/><polygon class="cls-3" points="38.94 25.37 38.55 29.97 37.99 30.14 38.07 25.41 38.94 25.37"/><polygon class="cls-1" points="40.35 20.55 38.94 25.37 38.07 25.41 40.1 17.56 41.34 17.16 40.35 20.55"/><polygon class="cls-5" points="35.75 10.78 41.34 17.16 40.1 17.56 35.75 10.78"/><path class="cls-4" d="M32.6,21.71,31.85,18c.17-.33,3.9-7.21,3.9-7.21l4.35,6.78-2,7.85L38,30.14H35.17l-1.49-4.26L33.36,25l-.26-.76Z"/><path class="cls-3" d="M31.08,21.94v-.07h0L25.81,2.29v0l9-2.26h0c.15.07,9.9,4.35,10.36,4.48l-4.19,16-.58.09,1-3.39-5.59-6.38S32,17.66,31.85,18l.75,3.72Z"/><polygon class="cls-7" points="25.81 2.29 31.07 21.87 20.76 22.97 13.44 21.01 14.92 2.82 25.81 2.29"/><polygon class="cls-9" points="31.07 21.87 31.07 21.87 20.29 24.83 20.76 22.97 31.07 21.87"/><polygon class="cls-8" points="20.76 22.97 20.29 24.83 13.44 21.01 20.76 22.97"/><polygon class="cls-3" points="18.89 30.39 17.07 32.1 14.54 33.27 16.86 30.94 18.89 30.39"/><polygon class="cls-2" points="16.86 30.94 14.54 33.27 13.73 31.69 15.66 30.39 16.86 30.94"/><polygon class="cls-4" points="18.89 30.39 16.86 30.94 15.66 30.39 16.47 29.91 18.89 30.39"/><polygon class="cls-6" points="14.17 26.84 16.47 29.91 15.66 30.39 13.42 27.28 14.17 26.84"/><polygon class="cls-7" points="13.44 21.01 14.17 26.84 13.42 27.28 12.57 21.65 13.44 21.01"/><polygon class="cls-8" points="13.42 27.28 15.66 30.39 13.73 31.69 9.75 29.62 8.23 24.85 8.2 24.81 12.57 21.65 13.42 27.28"/><path class="cls-4" d="M3.41,32.85l.48,2.55S0,34.75,0,34.72s.92-2.21.92-2.21Z"/><polygon class="cls-3" points="4.34 32.51 5.62 34.78 3.89 35.4 3.41 32.85 4.34 32.51"/><polygon class="cls-1" points="6.43 26.1 4.34 32.51 3.41 32.85 4.81 26.08 6.43 26.1"/><polygon class="cls-5" points="13.44 21.01 12.57 21.65 8.2 24.81 6.43 26.1 4.81 26.08 11.31 20.07 13.44 21.01"/><polygon class="cls-4" points="14.92 2.82 13.44 21.01 11.31 20.07 14.92 2.82"/><polygon class="cls-6" points="14.92 2.82 11.31 20.07 4.81 26.08 3.41 32.85 0.92 32.51 0 27.28 1.68 22.45 3.41 8.31 14.92 2.82"/></g></g></svg>