<svg xmlns="http://www.w3.org/2000/svg" viewBox="0 0 74.07 71.67"><defs><style>.cls-1{fill:#5684be;}</style></defs><title>Recurso 3</title><g id="Capa_2" data-name="Capa 2"><g id="Capa_1-2" data-name="Capa 1"><path class="cls-1" d="M73.45,37.43l-2.38-7.31L68.9,23.44,64.11,8.7a12.58,12.58,0,0,0-12-8.7H21.93A12.58,12.58,0,0,0,10,8.7L5.16,23.44,3,30.12.61,37.43A12.6,12.6,0,0,0,5.19,51.51L29.62,69.27a12.55,12.55,0,0,0,10.75,1.94,12.44,12.44,0,0,0,4.06-1.94L68.87,51.51A12.61,12.61,0,0,0,73.45,37.43ZM33.69,65.21a5.46,5.46,0,0,1-.77-.47L8.48,47a7,7,0,0,1-2.54-7.82l2.93-9H33.69Zm0-41.77H11l4.23-13A7,7,0,0,1,21.93,5.6H33.69ZM40.37,5.6H52.13a7,7,0,0,1,6.66,4.83l4.22,13H40.37ZM65.58,47,41.14,64.74a6.1,6.1,0,0,1-.77.47V30.12H65.19l2.93,9A7,7,0,0,1,65.58,47Z"/></g></g></svg>