<svg xmlns="http://www.w3.org/2000/svg" viewBox="0 0 180.23 95.5"><defs><style>.cls-1{fill:#2c465e;}.cls-2{fill:#d4e8ff;}.cls-3{fill:#e1eeff;}.cls-4{fill:#6b8092;}.cls-5{fill:#587185;}.cls-6{fill:#91a9bf;}.cls-7{fill:#34506b;}.cls-8{fill:#4b6278;}.cls-9{fill:#223649;}.cls-10{fill:#546c7f;}</style></defs><title>Recurso 7</title><g id="Capa_2" data-name="Capa 2"><g id="Capa_1-2" data-name="Capa 1"><polygon class="cls-1" points="157.29 57.82 158.84 60.11 154.4 61.03 157.29 57.82"/><polygon class="cls-2" points="180.23 51.47 175.11 60.11 173.35 58.27 180.23 51.47"/><polygon class="cls-3" points="173.35 58.27 175.11 60.11 165.63 63.3 165.05 61.03 173.35 58.27"/><polygon class="cls-4" points="165.05 61.03 165.63 63.3 154.4 61.03 158.84 60.11 165.05 61.03"/><path class="cls-5" d="M155.15,75.21,152.3,78.4V69.21C152.39,69.76,155.15,75.21,155.15,75.21Z"/><path class="cls-6" d="M180.23,51.47,178.13,61,169,68.84l-13.84,6.37s-2.76-5.45-2.85-6v0c.08-.25,2.1-8.14,2.1-8.14l11.23,2.27,9.48-3.19Z"/><path class="cls-4" d="M140.72,28.24l1.85,10.23,3.94,13.67,2.27,2.18,1.93,4.87L154.4,61s-2,7.89-2.1,8.14V78.4l-7.8,3.77-15-13.59-4.86-13.37,7-24.43,2,.93,1.57-1.85,1.71-4.81ZM145.14,61,144,59.19l-1.87-2.32.22,3.24Z"/><polygon class="cls-6" points="166.73 47.36 157.29 57.82 154.4 61.03 150.71 59.19 148.78 54.33 166.73 47.36"/><polygon class="cls-1" points="151.07 49.76 148.78 54.33 146.51 52.14 151.07 49.76"/><polygon class="cls-2" points="166.73 47.36 148.78 54.33 151.07 49.76 166.73 47.36"/><polygon class="cls-2" points="147.27 36.79 151.07 49.76 146.51 52.14 142.57 38.47 147.27 36.79"/><polygon class="cls-6" points="146.17 27.48 147.27 36.79 142.57 38.47 140.72 28.24 146.17 27.48"/><polygon class="cls-3" points="150.95 18.42 150.53 20.99 145.41 26.88 144.62 26.24 149.7 20.52 150.19 17.8 150.95 18.42"/><polygon class="cls-4" points="150.19 17.8 149.7 20.52 144.62 26.24 140.07 22.59 147.27 18.22 150.19 17.8"/><path class="cls-5" d="M125.85,11.18l-4.14.9C120.49,11.75,94.17.18,93.76,0Z"/><path class="cls-3" d="M145.41,26.88l.76.61-5.45.75-3.82-3.19,0,0-8.05-6.9h-.06l-7-6,4.14-.9,14.22,11.41,4.55,3.65Z"/><polygon class="cls-3" points="128.82 18.19 129.76 27.61 127.92 29.08 126.69 18.62 128.75 18.13 128.82 18.19"/><polygon class="cls-6" points="131.6 30.78 127.92 29.08 129.76 27.61 135.19 29.86 133.62 31.7 131.6 30.78"/><path class="cls-5" d="M136.9,25.05l-1.71,4.81-5.43-2.25-.94-9.42,5.12,4.4L136.86,25Z"/><path class="cls-1" d="M127.92,29.08l3.68,1.7-7,24.43h-14.2l11.29-43.13,7,6-2.06.49Z"/><path class="cls-5" d="M79.89,78.4l1.36.89s-3.82,6.26-4,6.38a41.3,41.3,0,0,1-4.43-2Z"/><polygon class="cls-1" points="74.86 72.58 79.89 78.4 72.77 83.65 68.37 75.21 74.86 72.58"/><polygon class="cls-7" points="88.72 74.48 81.25 79.29 79.89 78.4 87.27 73.78 88.72 74.48"/><polygon class="cls-8" points="90.01 67.37 90.86 69.82 88.72 74.48 87.27 73.78 90.01 67.37"/><path class="cls-9" d="M89.29,65.31,90,67.37l-2.74,6.41L79.89,78.4l-5-5.82,6.39-5.37,2.61-8,4.08-.61Z"/><path class="cls-4" d="M102.48,81.3l1.39,9.18S93.08,90.14,92.75,90s2.12-8.73,2.12-8.73Z"/><polygon class="cls-3" points="109.41 85.89 103.87 90.47 102.48 81.3 103.99 80.86 109.41 85.89"/><polygon class="cls-4" points="105.05 68.44 103.99 80.86 102.48 81.3 102.7 68.56 105.05 68.44"/><polygon class="cls-3" points="108.86 55.44 105.05 68.44 102.7 68.56 108.18 47.36 111.53 46.3 108.86 55.44"/><polygon class="cls-6" points="96.44 29.08 111.53 46.3 108.18 47.36 96.44 29.08"/><path class="cls-5" d="M87.94,58.58l-2-10c.45-.9,10.52-19.46,10.52-19.46l11.74,18.28-5.48,21.2-.22,12.74H94.87l-4-11.48L90,67.37l-.72-2.06Z"/><path class="cls-4" d="M83.86,59.19l0-.18h0L69.62,6.18l0-.08L93.75,0h0c.41.18,26.73,11.75,27.95,12.08L110.42,55.21l-1.56.23,2.68-9.14L96.44,29.08S86.37,47.64,85.92,48.54l2,10Z"/><polygon class="cls-8" points="69.62 6.18 83.81 59 56 61.96 36.27 56.68 40.26 7.6 69.62 6.18"/><polygon class="cls-10" points="83.81 59 83.81 59.01 54.74 66.99 56 61.96 83.81 59"/><polygon class="cls-9" points="56 61.96 54.74 66.99 36.27 56.68 56 61.96"/><polygon class="cls-4" points="50.97 81.99 46.05 86.61 39.23 89.74 45.49 83.47 50.97 81.99"/><polygon class="cls-1" points="45.49 83.47 39.23 89.74 37.05 85.49 42.25 81.99 45.49 83.47"/><polygon class="cls-5" points="50.97 81.99 45.49 83.47 42.25 81.99 44.42 80.68 50.97 81.99"/><polygon class="cls-7" points="38.22 72.4 44.42 80.68 42.25 81.99 36.21 73.61 38.22 72.4"/><polygon class="cls-8" points="36.27 56.68 38.22 72.4 36.21 73.61 33.9 58.4 36.27 56.68"/><polygon class="cls-9" points="36.21 73.61 42.25 81.99 37.05 85.49 26.31 79.9 22.19 67.03 22.13 66.94 33.9 58.4 36.21 73.61"/><path class="cls-5" d="M9.2,88.62l1.28,6.88S0,93.74,0,93.65l2.49-6Z"/><polygon class="cls-4" points="11.71 87.7 15.15 93.82 10.48 95.5 9.2 88.62 11.71 87.7"/><polygon class="cls-3" points="17.34 70.42 11.71 87.7 9.2 88.62 12.97 70.36 17.34 70.42"/><polygon class="cls-6" points="36.27 56.68 33.9 58.4 22.13 66.94 17.34 70.42 12.97 70.36 30.5 54.15 36.27 56.68"/><polygon class="cls-5" points="40.26 7.6 36.27 56.68 30.5 54.15 40.26 7.6"/><polygon class="cls-7" points="40.26 7.6 30.5 54.15 12.97 70.36 9.2 88.62 2.49 87.7 0 73.61 4.53 60.57 9.2 22.41 40.26 7.6"/></g></g></svg>